G04 #@! TF.FileFunction,Legend,Top*
%FSLAX46Y46*%
G04 Gerber Fmt 4.6, Leading zero omitted, Abs format (unit mm)*
G04 Created by KiCad (PCBNEW 4.0.3+e1-6302~38~ubuntu15.10.1-stable) date Mon Sep 12 17:58:41 2016*
%MOMM*%
%LPD*%
G01*
G04 APERTURE LIST*
%ADD10C,0.100000*%
%ADD11C,0.300000*%
%ADD12C,0.150000*%
G04 APERTURE END LIST*
D10*
D11*
X157254012Y-88621063D02*
X158396869Y-88621063D01*
X157254012Y-90998503D02*
X158396869Y-90998503D01*
X157825440Y-91569931D02*
X157825440Y-90427074D01*
X88308252Y-89352583D02*
X89451109Y-89352583D01*
X88879680Y-89924011D02*
X88879680Y-88781154D01*
X88308252Y-91912903D02*
X89451109Y-91912903D01*
D12*
X84125821Y-93597029D02*
X84125821Y-93025600D01*
X85125821Y-93311315D02*
X84125821Y-93311315D01*
X85125821Y-92120838D02*
X84649630Y-92454172D01*
X85125821Y-92692267D02*
X84125821Y-92692267D01*
X84125821Y-92311314D01*
X84173440Y-92216076D01*
X84221059Y-92168457D01*
X84316297Y-92120838D01*
X84459154Y-92120838D01*
X84554392Y-92168457D01*
X84602011Y-92216076D01*
X84649630Y-92311314D01*
X84649630Y-92692267D01*
X84840107Y-91739886D02*
X84840107Y-91263695D01*
X85125821Y-91835124D02*
X84125821Y-91501791D01*
X85125821Y-91168457D01*
X85030583Y-90263695D02*
X85078202Y-90311314D01*
X85125821Y-90454171D01*
X85125821Y-90549409D01*
X85078202Y-90692267D01*
X84982964Y-90787505D01*
X84887726Y-90835124D01*
X84697250Y-90882743D01*
X84554392Y-90882743D01*
X84363916Y-90835124D01*
X84268678Y-90787505D01*
X84173440Y-90692267D01*
X84125821Y-90549409D01*
X84125821Y-90454171D01*
X84173440Y-90311314D01*
X84221059Y-90263695D01*
X85125821Y-89835124D02*
X84125821Y-89835124D01*
X85125821Y-89263695D02*
X84554392Y-89692267D01*
X84125821Y-89263695D02*
X84697250Y-89835124D01*
X85125821Y-87549409D02*
X85125821Y-88120838D01*
X85125821Y-87835124D02*
X84125821Y-87835124D01*
X84268678Y-87930362D01*
X84363916Y-88025600D01*
X84411535Y-88120838D01*
X161666941Y-93231269D02*
X161666941Y-92659840D01*
X162666941Y-92945555D02*
X161666941Y-92945555D01*
X162666941Y-91755078D02*
X162190750Y-92088412D01*
X162666941Y-92326507D02*
X161666941Y-92326507D01*
X161666941Y-91945554D01*
X161714560Y-91850316D01*
X161762179Y-91802697D01*
X161857417Y-91755078D01*
X162000274Y-91755078D01*
X162095512Y-91802697D01*
X162143131Y-91850316D01*
X162190750Y-91945554D01*
X162190750Y-92326507D01*
X162381227Y-91374126D02*
X162381227Y-90897935D01*
X162666941Y-91469364D02*
X161666941Y-91136031D01*
X162666941Y-90802697D01*
X162571703Y-89897935D02*
X162619322Y-89945554D01*
X162666941Y-90088411D01*
X162666941Y-90183649D01*
X162619322Y-90326507D01*
X162524084Y-90421745D01*
X162428846Y-90469364D01*
X162238370Y-90516983D01*
X162095512Y-90516983D01*
X161905036Y-90469364D01*
X161809798Y-90421745D01*
X161714560Y-90326507D01*
X161666941Y-90183649D01*
X161666941Y-90088411D01*
X161714560Y-89945554D01*
X161762179Y-89897935D01*
X162666941Y-89469364D02*
X161666941Y-89469364D01*
X162666941Y-88897935D02*
X162095512Y-89326507D01*
X161666941Y-88897935D02*
X162238370Y-89469364D01*
X161762179Y-87755078D02*
X161714560Y-87707459D01*
X161666941Y-87612221D01*
X161666941Y-87374125D01*
X161714560Y-87278887D01*
X161762179Y-87231268D01*
X161857417Y-87183649D01*
X161952655Y-87183649D01*
X162095512Y-87231268D01*
X162666941Y-87802697D01*
X162666941Y-87183649D01*
M02*
