G04 #@! TF.FileFunction,Legend,Top*
%FSLAX46Y46*%
G04 Gerber Fmt 4.6, Leading zero omitted, Abs format (unit mm)*
G04 Created by KiCad (PCBNEW 4.0.4+e1-6308~48~ubuntu14.04.1-stable) date Tue Sep 13 00:05:41 2016*
%MOMM*%
%LPD*%
G01*
G04 APERTURE LIST*
%ADD10C,0.100000*%
%ADD11C,0.275000*%
%ADD12C,0.600000*%
%ADD13C,0.300000*%
%ADD14C,0.150000*%
G04 APERTURE END LIST*
D10*
D11*
X112917382Y-98457619D02*
X113545953Y-98457619D01*
X113231668Y-99557619D02*
X113231668Y-98457619D01*
X114331667Y-99505238D02*
X114226905Y-99557619D01*
X114017382Y-99557619D01*
X113912620Y-99505238D01*
X113860239Y-99400476D01*
X113860239Y-98981429D01*
X113912620Y-98876667D01*
X114017382Y-98824286D01*
X114226905Y-98824286D01*
X114331667Y-98876667D01*
X114384048Y-98981429D01*
X114384048Y-99086190D01*
X113860239Y-99190952D01*
X114803096Y-99505238D02*
X114907858Y-99557619D01*
X115117382Y-99557619D01*
X115222143Y-99505238D01*
X115274524Y-99400476D01*
X115274524Y-99348095D01*
X115222143Y-99243333D01*
X115117382Y-99190952D01*
X114960239Y-99190952D01*
X114855477Y-99138571D01*
X114803096Y-99033810D01*
X114803096Y-98981429D01*
X114855477Y-98876667D01*
X114960239Y-98824286D01*
X115117382Y-98824286D01*
X115222143Y-98876667D01*
X115588810Y-98824286D02*
X116007858Y-98824286D01*
X115745953Y-98457619D02*
X115745953Y-99400476D01*
X115798334Y-99505238D01*
X115903096Y-99557619D01*
X116007858Y-99557619D01*
X117055476Y-98457619D02*
X117422143Y-99557619D01*
X117788809Y-98457619D01*
X118155476Y-99557619D02*
X118155476Y-98824286D01*
X118155476Y-98457619D02*
X118103095Y-98510000D01*
X118155476Y-98562381D01*
X118207857Y-98510000D01*
X118155476Y-98457619D01*
X118155476Y-98562381D01*
X118626905Y-99505238D02*
X118731667Y-99557619D01*
X118941191Y-99557619D01*
X119045952Y-99505238D01*
X119098333Y-99400476D01*
X119098333Y-99348095D01*
X119045952Y-99243333D01*
X118941191Y-99190952D01*
X118784048Y-99190952D01*
X118679286Y-99138571D01*
X118626905Y-99033810D01*
X118626905Y-98981429D01*
X118679286Y-98876667D01*
X118784048Y-98824286D01*
X118941191Y-98824286D01*
X119045952Y-98876667D01*
X120041190Y-99557619D02*
X120041190Y-98981429D01*
X119988809Y-98876667D01*
X119884047Y-98824286D01*
X119674524Y-98824286D01*
X119569762Y-98876667D01*
X120041190Y-99505238D02*
X119936428Y-99557619D01*
X119674524Y-99557619D01*
X119569762Y-99505238D01*
X119517381Y-99400476D01*
X119517381Y-99295714D01*
X119569762Y-99190952D01*
X119674524Y-99138571D01*
X119936428Y-99138571D01*
X120041190Y-99086190D01*
X121403095Y-98824286D02*
X121403095Y-99557619D01*
X121403095Y-98929048D02*
X121455476Y-98876667D01*
X121560238Y-98824286D01*
X121717380Y-98824286D01*
X121822142Y-98876667D01*
X121874523Y-98981429D01*
X121874523Y-99557619D01*
X122869761Y-98824286D02*
X122869761Y-99557619D01*
X122398333Y-98824286D02*
X122398333Y-99400476D01*
X122450714Y-99505238D01*
X122555476Y-99557619D01*
X122712618Y-99557619D01*
X122817380Y-99505238D01*
X122869761Y-99452857D01*
X123393571Y-99557619D02*
X123393571Y-98824286D01*
X123393571Y-98929048D02*
X123445952Y-98876667D01*
X123550714Y-98824286D01*
X123707856Y-98824286D01*
X123812618Y-98876667D01*
X123864999Y-98981429D01*
X123864999Y-99557619D01*
X123864999Y-98981429D02*
X123917380Y-98876667D01*
X124022142Y-98824286D01*
X124179285Y-98824286D01*
X124284047Y-98876667D01*
X124336428Y-98981429D01*
X124336428Y-99557619D01*
X124860238Y-99557619D02*
X124860238Y-98457619D01*
X124860238Y-98876667D02*
X124965000Y-98824286D01*
X125174523Y-98824286D01*
X125279285Y-98876667D01*
X125331666Y-98929048D01*
X125384047Y-99033810D01*
X125384047Y-99348095D01*
X125331666Y-99452857D01*
X125279285Y-99505238D01*
X125174523Y-99557619D01*
X124965000Y-99557619D01*
X124860238Y-99505238D01*
X126274523Y-99505238D02*
X126169761Y-99557619D01*
X125960238Y-99557619D01*
X125855476Y-99505238D01*
X125803095Y-99400476D01*
X125803095Y-98981429D01*
X125855476Y-98876667D01*
X125960238Y-98824286D01*
X126169761Y-98824286D01*
X126274523Y-98876667D01*
X126326904Y-98981429D01*
X126326904Y-99086190D01*
X125803095Y-99190952D01*
X126798333Y-99557619D02*
X126798333Y-98824286D01*
X126798333Y-99033810D02*
X126850714Y-98929048D01*
X126903095Y-98876667D01*
X127007857Y-98824286D01*
X127112618Y-98824286D01*
D12*
X88396047Y-93630857D02*
X88396047Y-96297524D01*
X87443666Y-92107048D02*
X86491285Y-94964190D01*
X88967475Y-94964190D01*
X91253190Y-92297524D02*
X91634142Y-92297524D01*
X92015094Y-92488000D01*
X92205571Y-92678476D01*
X92396047Y-93059429D01*
X92586523Y-93821333D01*
X92586523Y-94773714D01*
X92396047Y-95535619D01*
X92205571Y-95916571D01*
X92015094Y-96107048D01*
X91634142Y-96297524D01*
X91253190Y-96297524D01*
X90872237Y-96107048D01*
X90681761Y-95916571D01*
X90491285Y-95535619D01*
X90300809Y-94773714D01*
X90300809Y-93821333D01*
X90491285Y-93059429D01*
X90681761Y-92678476D01*
X90872237Y-92488000D01*
X91253190Y-92297524D01*
X96396047Y-96297524D02*
X94110333Y-96297524D01*
X95253190Y-96297524D02*
X95253190Y-92297524D01*
X94872238Y-92868952D01*
X94491285Y-93249905D01*
X94110333Y-93440381D01*
X97919857Y-92678476D02*
X98110333Y-92488000D01*
X98491285Y-92297524D01*
X99443666Y-92297524D01*
X99824619Y-92488000D01*
X100015095Y-92678476D01*
X100205571Y-93059429D01*
X100205571Y-93440381D01*
X100015095Y-94011810D01*
X97729381Y-96297524D01*
X100205571Y-96297524D01*
X105538905Y-94011810D02*
X105157952Y-93821333D01*
X104967476Y-93630857D01*
X104777000Y-93249905D01*
X104777000Y-93059429D01*
X104967476Y-92678476D01*
X105157952Y-92488000D01*
X105538905Y-92297524D01*
X106300809Y-92297524D01*
X106681762Y-92488000D01*
X106872238Y-92678476D01*
X107062714Y-93059429D01*
X107062714Y-93249905D01*
X106872238Y-93630857D01*
X106681762Y-93821333D01*
X106300809Y-94011810D01*
X105538905Y-94011810D01*
X105157952Y-94202286D01*
X104967476Y-94392762D01*
X104777000Y-94773714D01*
X104777000Y-95535619D01*
X104967476Y-95916571D01*
X105157952Y-96107048D01*
X105538905Y-96297524D01*
X106300809Y-96297524D01*
X106681762Y-96107048D01*
X106872238Y-95916571D01*
X107062714Y-95535619D01*
X107062714Y-94773714D01*
X106872238Y-94392762D01*
X106681762Y-94202286D01*
X106300809Y-94011810D01*
X109348429Y-94011810D02*
X108967476Y-93821333D01*
X108777000Y-93630857D01*
X108586524Y-93249905D01*
X108586524Y-93059429D01*
X108777000Y-92678476D01*
X108967476Y-92488000D01*
X109348429Y-92297524D01*
X110110333Y-92297524D01*
X110491286Y-92488000D01*
X110681762Y-92678476D01*
X110872238Y-93059429D01*
X110872238Y-93249905D01*
X110681762Y-93630857D01*
X110491286Y-93821333D01*
X110110333Y-94011810D01*
X109348429Y-94011810D01*
X108967476Y-94202286D01*
X108777000Y-94392762D01*
X108586524Y-94773714D01*
X108586524Y-95535619D01*
X108777000Y-95916571D01*
X108967476Y-96107048D01*
X109348429Y-96297524D01*
X110110333Y-96297524D01*
X110491286Y-96107048D01*
X110681762Y-95916571D01*
X110872238Y-95535619D01*
X110872238Y-94773714D01*
X110681762Y-94392762D01*
X110491286Y-94202286D01*
X110110333Y-94011810D01*
X113157953Y-94011810D02*
X112777000Y-93821333D01*
X112586524Y-93630857D01*
X112396048Y-93249905D01*
X112396048Y-93059429D01*
X112586524Y-92678476D01*
X112777000Y-92488000D01*
X113157953Y-92297524D01*
X113919857Y-92297524D01*
X114300810Y-92488000D01*
X114491286Y-92678476D01*
X114681762Y-93059429D01*
X114681762Y-93249905D01*
X114491286Y-93630857D01*
X114300810Y-93821333D01*
X113919857Y-94011810D01*
X113157953Y-94011810D01*
X112777000Y-94202286D01*
X112586524Y-94392762D01*
X112396048Y-94773714D01*
X112396048Y-95535619D01*
X112586524Y-95916571D01*
X112777000Y-96107048D01*
X113157953Y-96297524D01*
X113919857Y-96297524D01*
X114300810Y-96107048D01*
X114491286Y-95916571D01*
X114681762Y-95535619D01*
X114681762Y-94773714D01*
X114491286Y-94392762D01*
X114300810Y-94202286D01*
X113919857Y-94011810D01*
X116967477Y-94011810D02*
X116586524Y-93821333D01*
X116396048Y-93630857D01*
X116205572Y-93249905D01*
X116205572Y-93059429D01*
X116396048Y-92678476D01*
X116586524Y-92488000D01*
X116967477Y-92297524D01*
X117729381Y-92297524D01*
X118110334Y-92488000D01*
X118300810Y-92678476D01*
X118491286Y-93059429D01*
X118491286Y-93249905D01*
X118300810Y-93630857D01*
X118110334Y-93821333D01*
X117729381Y-94011810D01*
X116967477Y-94011810D01*
X116586524Y-94202286D01*
X116396048Y-94392762D01*
X116205572Y-94773714D01*
X116205572Y-95535619D01*
X116396048Y-95916571D01*
X116586524Y-96107048D01*
X116967477Y-96297524D01*
X117729381Y-96297524D01*
X118110334Y-96107048D01*
X118300810Y-95916571D01*
X118491286Y-95535619D01*
X118491286Y-94773714D01*
X118300810Y-94392762D01*
X118110334Y-94202286D01*
X117729381Y-94011810D01*
X123824620Y-94011810D02*
X123443667Y-93821333D01*
X123253191Y-93630857D01*
X123062715Y-93249905D01*
X123062715Y-93059429D01*
X123253191Y-92678476D01*
X123443667Y-92488000D01*
X123824620Y-92297524D01*
X124586524Y-92297524D01*
X124967477Y-92488000D01*
X125157953Y-92678476D01*
X125348429Y-93059429D01*
X125348429Y-93249905D01*
X125157953Y-93630857D01*
X124967477Y-93821333D01*
X124586524Y-94011810D01*
X123824620Y-94011810D01*
X123443667Y-94202286D01*
X123253191Y-94392762D01*
X123062715Y-94773714D01*
X123062715Y-95535619D01*
X123253191Y-95916571D01*
X123443667Y-96107048D01*
X123824620Y-96297524D01*
X124586524Y-96297524D01*
X124967477Y-96107048D01*
X125157953Y-95916571D01*
X125348429Y-95535619D01*
X125348429Y-94773714D01*
X125157953Y-94392762D01*
X124967477Y-94202286D01*
X124586524Y-94011810D01*
X127634144Y-94011810D02*
X127253191Y-93821333D01*
X127062715Y-93630857D01*
X126872239Y-93249905D01*
X126872239Y-93059429D01*
X127062715Y-92678476D01*
X127253191Y-92488000D01*
X127634144Y-92297524D01*
X128396048Y-92297524D01*
X128777001Y-92488000D01*
X128967477Y-92678476D01*
X129157953Y-93059429D01*
X129157953Y-93249905D01*
X128967477Y-93630857D01*
X128777001Y-93821333D01*
X128396048Y-94011810D01*
X127634144Y-94011810D01*
X127253191Y-94202286D01*
X127062715Y-94392762D01*
X126872239Y-94773714D01*
X126872239Y-95535619D01*
X127062715Y-95916571D01*
X127253191Y-96107048D01*
X127634144Y-96297524D01*
X128396048Y-96297524D01*
X128777001Y-96107048D01*
X128967477Y-95916571D01*
X129157953Y-95535619D01*
X129157953Y-94773714D01*
X128967477Y-94392762D01*
X128777001Y-94202286D01*
X128396048Y-94011810D01*
X131443668Y-94011810D02*
X131062715Y-93821333D01*
X130872239Y-93630857D01*
X130681763Y-93249905D01*
X130681763Y-93059429D01*
X130872239Y-92678476D01*
X131062715Y-92488000D01*
X131443668Y-92297524D01*
X132205572Y-92297524D01*
X132586525Y-92488000D01*
X132777001Y-92678476D01*
X132967477Y-93059429D01*
X132967477Y-93249905D01*
X132777001Y-93630857D01*
X132586525Y-93821333D01*
X132205572Y-94011810D01*
X131443668Y-94011810D01*
X131062715Y-94202286D01*
X130872239Y-94392762D01*
X130681763Y-94773714D01*
X130681763Y-95535619D01*
X130872239Y-95916571D01*
X131062715Y-96107048D01*
X131443668Y-96297524D01*
X132205572Y-96297524D01*
X132586525Y-96107048D01*
X132777001Y-95916571D01*
X132967477Y-95535619D01*
X132967477Y-94773714D01*
X132777001Y-94392762D01*
X132586525Y-94202286D01*
X132205572Y-94011810D01*
X135253192Y-94011810D02*
X134872239Y-93821333D01*
X134681763Y-93630857D01*
X134491287Y-93249905D01*
X134491287Y-93059429D01*
X134681763Y-92678476D01*
X134872239Y-92488000D01*
X135253192Y-92297524D01*
X136015096Y-92297524D01*
X136396049Y-92488000D01*
X136586525Y-92678476D01*
X136777001Y-93059429D01*
X136777001Y-93249905D01*
X136586525Y-93630857D01*
X136396049Y-93821333D01*
X136015096Y-94011810D01*
X135253192Y-94011810D01*
X134872239Y-94202286D01*
X134681763Y-94392762D01*
X134491287Y-94773714D01*
X134491287Y-95535619D01*
X134681763Y-95916571D01*
X134872239Y-96107048D01*
X135253192Y-96297524D01*
X136015096Y-96297524D01*
X136396049Y-96107048D01*
X136586525Y-95916571D01*
X136777001Y-95535619D01*
X136777001Y-94773714D01*
X136586525Y-94392762D01*
X136396049Y-94202286D01*
X136015096Y-94011810D01*
X143634144Y-96297524D02*
X141348430Y-96297524D01*
X142491287Y-96297524D02*
X142491287Y-92297524D01*
X142110335Y-92868952D01*
X141729382Y-93249905D01*
X141348430Y-93440381D01*
X145919859Y-94011810D02*
X145538906Y-93821333D01*
X145348430Y-93630857D01*
X145157954Y-93249905D01*
X145157954Y-93059429D01*
X145348430Y-92678476D01*
X145538906Y-92488000D01*
X145919859Y-92297524D01*
X146681763Y-92297524D01*
X147062716Y-92488000D01*
X147253192Y-92678476D01*
X147443668Y-93059429D01*
X147443668Y-93249905D01*
X147253192Y-93630857D01*
X147062716Y-93821333D01*
X146681763Y-94011810D01*
X145919859Y-94011810D01*
X145538906Y-94202286D01*
X145348430Y-94392762D01*
X145157954Y-94773714D01*
X145157954Y-95535619D01*
X145348430Y-95916571D01*
X145538906Y-96107048D01*
X145919859Y-96297524D01*
X146681763Y-96297524D01*
X147062716Y-96107048D01*
X147253192Y-95916571D01*
X147443668Y-95535619D01*
X147443668Y-94773714D01*
X147253192Y-94392762D01*
X147062716Y-94202286D01*
X146681763Y-94011810D01*
X149729383Y-94011810D02*
X149348430Y-93821333D01*
X149157954Y-93630857D01*
X148967478Y-93249905D01*
X148967478Y-93059429D01*
X149157954Y-92678476D01*
X149348430Y-92488000D01*
X149729383Y-92297524D01*
X150491287Y-92297524D01*
X150872240Y-92488000D01*
X151062716Y-92678476D01*
X151253192Y-93059429D01*
X151253192Y-93249905D01*
X151062716Y-93630857D01*
X150872240Y-93821333D01*
X150491287Y-94011810D01*
X149729383Y-94011810D01*
X149348430Y-94202286D01*
X149157954Y-94392762D01*
X148967478Y-94773714D01*
X148967478Y-95535619D01*
X149157954Y-95916571D01*
X149348430Y-96107048D01*
X149729383Y-96297524D01*
X150491287Y-96297524D01*
X150872240Y-96107048D01*
X151062716Y-95916571D01*
X151253192Y-95535619D01*
X151253192Y-94773714D01*
X151062716Y-94392762D01*
X150872240Y-94202286D01*
X150491287Y-94011810D01*
X155062716Y-96297524D02*
X152777002Y-96297524D01*
X153919859Y-96297524D02*
X153919859Y-92297524D01*
X153538907Y-92868952D01*
X153157954Y-93249905D01*
X152777002Y-93440381D01*
D13*
X161353572Y-105644143D02*
X162496429Y-105644143D01*
X161925000Y-106215571D02*
X161925000Y-105072714D01*
X82486572Y-106406143D02*
X83629429Y-106406143D01*
X106622143Y-70137571D02*
X106622143Y-68637571D01*
X107122143Y-69709000D01*
X107622143Y-68637571D01*
X107622143Y-70137571D01*
X108979286Y-70137571D02*
X108979286Y-69351857D01*
X108907857Y-69209000D01*
X108765000Y-69137571D01*
X108479286Y-69137571D01*
X108336429Y-69209000D01*
X108979286Y-70066143D02*
X108836429Y-70137571D01*
X108479286Y-70137571D01*
X108336429Y-70066143D01*
X108265000Y-69923286D01*
X108265000Y-69780429D01*
X108336429Y-69637571D01*
X108479286Y-69566143D01*
X108836429Y-69566143D01*
X108979286Y-69494714D01*
X110336429Y-69137571D02*
X110336429Y-70351857D01*
X110265000Y-70494714D01*
X110193572Y-70566143D01*
X110050715Y-70637571D01*
X109836429Y-70637571D01*
X109693572Y-70566143D01*
X110336429Y-70066143D02*
X110193572Y-70137571D01*
X109907858Y-70137571D01*
X109765000Y-70066143D01*
X109693572Y-69994714D01*
X109622143Y-69851857D01*
X109622143Y-69423286D01*
X109693572Y-69280429D01*
X109765000Y-69209000D01*
X109907858Y-69137571D01*
X110193572Y-69137571D01*
X110336429Y-69209000D01*
X111050715Y-69137571D02*
X111050715Y-70137571D01*
X111050715Y-69280429D02*
X111122143Y-69209000D01*
X111265001Y-69137571D01*
X111479286Y-69137571D01*
X111622143Y-69209000D01*
X111693572Y-69351857D01*
X111693572Y-70137571D01*
X112979286Y-70066143D02*
X112836429Y-70137571D01*
X112550715Y-70137571D01*
X112407858Y-70066143D01*
X112336429Y-69923286D01*
X112336429Y-69351857D01*
X112407858Y-69209000D01*
X112550715Y-69137571D01*
X112836429Y-69137571D01*
X112979286Y-69209000D01*
X113050715Y-69351857D01*
X113050715Y-69494714D01*
X112336429Y-69637571D01*
X113479286Y-69137571D02*
X114050715Y-69137571D01*
X113693572Y-68637571D02*
X113693572Y-69923286D01*
X113765000Y-70066143D01*
X113907858Y-70137571D01*
X114050715Y-70137571D01*
X114550715Y-70137571D02*
X114550715Y-69137571D01*
X114550715Y-68637571D02*
X114479286Y-68709000D01*
X114550715Y-68780429D01*
X114622143Y-68709000D01*
X114550715Y-68637571D01*
X114550715Y-68780429D01*
X115907858Y-70066143D02*
X115765001Y-70137571D01*
X115479287Y-70137571D01*
X115336429Y-70066143D01*
X115265001Y-69994714D01*
X115193572Y-69851857D01*
X115193572Y-69423286D01*
X115265001Y-69280429D01*
X115336429Y-69209000D01*
X115479287Y-69137571D01*
X115765001Y-69137571D01*
X115907858Y-69209000D01*
X117622143Y-70066143D02*
X117836429Y-70137571D01*
X118193572Y-70137571D01*
X118336429Y-70066143D01*
X118407858Y-69994714D01*
X118479286Y-69851857D01*
X118479286Y-69709000D01*
X118407858Y-69566143D01*
X118336429Y-69494714D01*
X118193572Y-69423286D01*
X117907858Y-69351857D01*
X117765000Y-69280429D01*
X117693572Y-69209000D01*
X117622143Y-69066143D01*
X117622143Y-68923286D01*
X117693572Y-68780429D01*
X117765000Y-68709000D01*
X117907858Y-68637571D01*
X118265000Y-68637571D01*
X118479286Y-68709000D01*
X118907857Y-69137571D02*
X119479286Y-69137571D01*
X119122143Y-68637571D02*
X119122143Y-69923286D01*
X119193571Y-70066143D01*
X119336429Y-70137571D01*
X119479286Y-70137571D01*
X119979286Y-70137571D02*
X119979286Y-69137571D01*
X119979286Y-69423286D02*
X120050714Y-69280429D01*
X120122143Y-69209000D01*
X120265000Y-69137571D01*
X120407857Y-69137571D01*
X120907857Y-70137571D02*
X120907857Y-69137571D01*
X120907857Y-68637571D02*
X120836428Y-68709000D01*
X120907857Y-68780429D01*
X120979285Y-68709000D01*
X120907857Y-68637571D01*
X120907857Y-68780429D01*
X121622143Y-69137571D02*
X121622143Y-70637571D01*
X121622143Y-69209000D02*
X121765000Y-69137571D01*
X122050714Y-69137571D01*
X122193571Y-69209000D01*
X122265000Y-69280429D01*
X122336429Y-69423286D01*
X122336429Y-69851857D01*
X122265000Y-69994714D01*
X122193571Y-70066143D01*
X122050714Y-70137571D01*
X121765000Y-70137571D01*
X121622143Y-70066143D01*
X124122143Y-69351857D02*
X124622143Y-69351857D01*
X124836429Y-70137571D02*
X124122143Y-70137571D01*
X124122143Y-68637571D01*
X124836429Y-68637571D01*
X125479286Y-70137571D02*
X125479286Y-69137571D01*
X125479286Y-69280429D02*
X125550714Y-69209000D01*
X125693572Y-69137571D01*
X125907857Y-69137571D01*
X126050714Y-69209000D01*
X126122143Y-69351857D01*
X126122143Y-70137571D01*
X126122143Y-69351857D02*
X126193572Y-69209000D01*
X126336429Y-69137571D01*
X126550714Y-69137571D01*
X126693572Y-69209000D01*
X126765000Y-69351857D01*
X126765000Y-70137571D01*
X128122143Y-69137571D02*
X128122143Y-70137571D01*
X127479286Y-69137571D02*
X127479286Y-69923286D01*
X127550714Y-70066143D01*
X127693572Y-70137571D01*
X127907857Y-70137571D01*
X128050714Y-70066143D01*
X128122143Y-69994714D01*
X129050715Y-70137571D02*
X128907857Y-70066143D01*
X128836429Y-69923286D01*
X128836429Y-68637571D01*
X130265000Y-70137571D02*
X130265000Y-69351857D01*
X130193571Y-69209000D01*
X130050714Y-69137571D01*
X129765000Y-69137571D01*
X129622143Y-69209000D01*
X130265000Y-70066143D02*
X130122143Y-70137571D01*
X129765000Y-70137571D01*
X129622143Y-70066143D01*
X129550714Y-69923286D01*
X129550714Y-69780429D01*
X129622143Y-69637571D01*
X129765000Y-69566143D01*
X130122143Y-69566143D01*
X130265000Y-69494714D01*
X130765000Y-69137571D02*
X131336429Y-69137571D01*
X130979286Y-68637571D02*
X130979286Y-69923286D01*
X131050714Y-70066143D01*
X131193572Y-70137571D01*
X131336429Y-70137571D01*
X132050715Y-70137571D02*
X131907857Y-70066143D01*
X131836429Y-69994714D01*
X131765000Y-69851857D01*
X131765000Y-69423286D01*
X131836429Y-69280429D01*
X131907857Y-69209000D01*
X132050715Y-69137571D01*
X132265000Y-69137571D01*
X132407857Y-69209000D01*
X132479286Y-69280429D01*
X132550715Y-69423286D01*
X132550715Y-69851857D01*
X132479286Y-69994714D01*
X132407857Y-70066143D01*
X132265000Y-70137571D01*
X132050715Y-70137571D01*
X133193572Y-70137571D02*
X133193572Y-69137571D01*
X133193572Y-69423286D02*
X133265000Y-69280429D01*
X133336429Y-69209000D01*
X133479286Y-69137571D01*
X133622143Y-69137571D01*
X113479286Y-72544714D02*
X113407857Y-72616143D01*
X113193571Y-72687571D01*
X113050714Y-72687571D01*
X112836429Y-72616143D01*
X112693571Y-72473286D01*
X112622143Y-72330429D01*
X112550714Y-72044714D01*
X112550714Y-71830429D01*
X112622143Y-71544714D01*
X112693571Y-71401857D01*
X112836429Y-71259000D01*
X113050714Y-71187571D01*
X113193571Y-71187571D01*
X113407857Y-71259000D01*
X113479286Y-71330429D01*
X114336429Y-72687571D02*
X114193571Y-72616143D01*
X114122143Y-72544714D01*
X114050714Y-72401857D01*
X114050714Y-71973286D01*
X114122143Y-71830429D01*
X114193571Y-71759000D01*
X114336429Y-71687571D01*
X114550714Y-71687571D01*
X114693571Y-71759000D01*
X114765000Y-71830429D01*
X114836429Y-71973286D01*
X114836429Y-72401857D01*
X114765000Y-72544714D01*
X114693571Y-72616143D01*
X114550714Y-72687571D01*
X114336429Y-72687571D01*
X115479286Y-71687571D02*
X115479286Y-72687571D01*
X115479286Y-71830429D02*
X115550714Y-71759000D01*
X115693572Y-71687571D01*
X115907857Y-71687571D01*
X116050714Y-71759000D01*
X116122143Y-71901857D01*
X116122143Y-72687571D01*
X117050715Y-72687571D02*
X116907857Y-72616143D01*
X116836429Y-72544714D01*
X116765000Y-72401857D01*
X116765000Y-71973286D01*
X116836429Y-71830429D01*
X116907857Y-71759000D01*
X117050715Y-71687571D01*
X117265000Y-71687571D01*
X117407857Y-71759000D01*
X117479286Y-71830429D01*
X117550715Y-71973286D01*
X117550715Y-72401857D01*
X117479286Y-72544714D01*
X117407857Y-72616143D01*
X117265000Y-72687571D01*
X117050715Y-72687571D01*
X118193572Y-72687571D02*
X118193572Y-71687571D01*
X118193572Y-71973286D02*
X118265000Y-71830429D01*
X118336429Y-71759000D01*
X118479286Y-71687571D01*
X118622143Y-71687571D01*
X120265000Y-72687571D02*
X120265000Y-71187571D01*
X120836428Y-71187571D01*
X120979286Y-71259000D01*
X121050714Y-71330429D01*
X121122143Y-71473286D01*
X121122143Y-71687571D01*
X121050714Y-71830429D01*
X120979286Y-71901857D01*
X120836428Y-71973286D01*
X120265000Y-71973286D01*
X122407857Y-72687571D02*
X122407857Y-71901857D01*
X122336428Y-71759000D01*
X122193571Y-71687571D01*
X121907857Y-71687571D01*
X121765000Y-71759000D01*
X122407857Y-72616143D02*
X122265000Y-72687571D01*
X121907857Y-72687571D01*
X121765000Y-72616143D01*
X121693571Y-72473286D01*
X121693571Y-72330429D01*
X121765000Y-72187571D01*
X121907857Y-72116143D01*
X122265000Y-72116143D01*
X122407857Y-72044714D01*
X122907857Y-71687571D02*
X123479286Y-71687571D01*
X123122143Y-71187571D02*
X123122143Y-72473286D01*
X123193571Y-72616143D01*
X123336429Y-72687571D01*
X123479286Y-72687571D01*
X123979286Y-72687571D02*
X123979286Y-71687571D01*
X123979286Y-71973286D02*
X124050714Y-71830429D01*
X124122143Y-71759000D01*
X124265000Y-71687571D01*
X124407857Y-71687571D01*
X124907857Y-72687571D02*
X124907857Y-71687571D01*
X124907857Y-71187571D02*
X124836428Y-71259000D01*
X124907857Y-71330429D01*
X124979285Y-71259000D01*
X124907857Y-71187571D01*
X124907857Y-71330429D01*
X126265000Y-72616143D02*
X126122143Y-72687571D01*
X125836429Y-72687571D01*
X125693571Y-72616143D01*
X125622143Y-72544714D01*
X125550714Y-72401857D01*
X125550714Y-71973286D01*
X125622143Y-71830429D01*
X125693571Y-71759000D01*
X125836429Y-71687571D01*
X126122143Y-71687571D01*
X126265000Y-71759000D01*
X126907857Y-72687571D02*
X126907857Y-71187571D01*
X127050714Y-72116143D02*
X127479285Y-72687571D01*
X127479285Y-71687571D02*
X126907857Y-72259000D01*
X113836429Y-75166143D02*
X113693572Y-75237571D01*
X113407858Y-75237571D01*
X113265000Y-75166143D01*
X113193572Y-75094714D01*
X113122143Y-74951857D01*
X113122143Y-74523286D01*
X113193572Y-74380429D01*
X113265000Y-74309000D01*
X113407858Y-74237571D01*
X113693572Y-74237571D01*
X113836429Y-74309000D01*
X114693572Y-75237571D02*
X114550714Y-75166143D01*
X114479286Y-75094714D01*
X114407857Y-74951857D01*
X114407857Y-74523286D01*
X114479286Y-74380429D01*
X114550714Y-74309000D01*
X114693572Y-74237571D01*
X114907857Y-74237571D01*
X115050714Y-74309000D01*
X115122143Y-74380429D01*
X115193572Y-74523286D01*
X115193572Y-74951857D01*
X115122143Y-75094714D01*
X115050714Y-75166143D01*
X114907857Y-75237571D01*
X114693572Y-75237571D01*
X115836429Y-74237571D02*
X115836429Y-75237571D01*
X115836429Y-74380429D02*
X115907857Y-74309000D01*
X116050715Y-74237571D01*
X116265000Y-74237571D01*
X116407857Y-74309000D01*
X116479286Y-74451857D01*
X116479286Y-75237571D01*
X117407858Y-75237571D02*
X117265000Y-75166143D01*
X117193572Y-75094714D01*
X117122143Y-74951857D01*
X117122143Y-74523286D01*
X117193572Y-74380429D01*
X117265000Y-74309000D01*
X117407858Y-74237571D01*
X117622143Y-74237571D01*
X117765000Y-74309000D01*
X117836429Y-74380429D01*
X117907858Y-74523286D01*
X117907858Y-74951857D01*
X117836429Y-75094714D01*
X117765000Y-75166143D01*
X117622143Y-75237571D01*
X117407858Y-75237571D01*
X118550715Y-75237571D02*
X118550715Y-74237571D01*
X118550715Y-74523286D02*
X118622143Y-74380429D01*
X118693572Y-74309000D01*
X118836429Y-74237571D01*
X118979286Y-74237571D01*
X119479286Y-74237571D02*
X119479286Y-75737571D01*
X119479286Y-74309000D02*
X119622143Y-74237571D01*
X119907857Y-74237571D01*
X120050714Y-74309000D01*
X120122143Y-74380429D01*
X120193572Y-74523286D01*
X120193572Y-74951857D01*
X120122143Y-75094714D01*
X120050714Y-75166143D01*
X119907857Y-75237571D01*
X119622143Y-75237571D01*
X119479286Y-75166143D01*
X120836429Y-74237571D02*
X120836429Y-75737571D01*
X120836429Y-74309000D02*
X120979286Y-74237571D01*
X121265000Y-74237571D01*
X121407857Y-74309000D01*
X121479286Y-74380429D01*
X121550715Y-74523286D01*
X121550715Y-74951857D01*
X121479286Y-75094714D01*
X121407857Y-75166143D01*
X121265000Y-75237571D01*
X120979286Y-75237571D01*
X120836429Y-75166143D01*
X122193572Y-75094714D02*
X122265000Y-75166143D01*
X122193572Y-75237571D01*
X122122143Y-75166143D01*
X122193572Y-75094714D01*
X122193572Y-75237571D01*
X123550715Y-75166143D02*
X123407858Y-75237571D01*
X123122144Y-75237571D01*
X122979286Y-75166143D01*
X122907858Y-75094714D01*
X122836429Y-74951857D01*
X122836429Y-74523286D01*
X122907858Y-74380429D01*
X122979286Y-74309000D01*
X123122144Y-74237571D01*
X123407858Y-74237571D01*
X123550715Y-74309000D01*
X124407858Y-75237571D02*
X124265000Y-75166143D01*
X124193572Y-75094714D01*
X124122143Y-74951857D01*
X124122143Y-74523286D01*
X124193572Y-74380429D01*
X124265000Y-74309000D01*
X124407858Y-74237571D01*
X124622143Y-74237571D01*
X124765000Y-74309000D01*
X124836429Y-74380429D01*
X124907858Y-74523286D01*
X124907858Y-74951857D01*
X124836429Y-75094714D01*
X124765000Y-75166143D01*
X124622143Y-75237571D01*
X124407858Y-75237571D01*
X125550715Y-75237571D02*
X125550715Y-74237571D01*
X125550715Y-74380429D02*
X125622143Y-74309000D01*
X125765001Y-74237571D01*
X125979286Y-74237571D01*
X126122143Y-74309000D01*
X126193572Y-74451857D01*
X126193572Y-75237571D01*
X126193572Y-74451857D02*
X126265001Y-74309000D01*
X126407858Y-74237571D01*
X126622143Y-74237571D01*
X126765001Y-74309000D01*
X126836429Y-74451857D01*
X126836429Y-75237571D01*
X158104012Y-70021063D02*
X159246869Y-70021063D01*
X158104012Y-72398503D02*
X159246869Y-72398503D01*
X158675440Y-72969931D02*
X158675440Y-71827074D01*
X87878572Y-70057143D02*
X89021429Y-70057143D01*
X88450000Y-70628571D02*
X88450000Y-69485714D01*
X87828572Y-72607143D02*
X88971429Y-72607143D01*
D14*
X83675821Y-74297029D02*
X83675821Y-73725600D01*
X84675821Y-74011315D02*
X83675821Y-74011315D01*
X84675821Y-72820838D02*
X84199630Y-73154172D01*
X84675821Y-73392267D02*
X83675821Y-73392267D01*
X83675821Y-73011314D01*
X83723440Y-72916076D01*
X83771059Y-72868457D01*
X83866297Y-72820838D01*
X84009154Y-72820838D01*
X84104392Y-72868457D01*
X84152011Y-72916076D01*
X84199630Y-73011314D01*
X84199630Y-73392267D01*
X84390107Y-72439886D02*
X84390107Y-71963695D01*
X84675821Y-72535124D02*
X83675821Y-72201791D01*
X84675821Y-71868457D01*
X84580583Y-70963695D02*
X84628202Y-71011314D01*
X84675821Y-71154171D01*
X84675821Y-71249409D01*
X84628202Y-71392267D01*
X84532964Y-71487505D01*
X84437726Y-71535124D01*
X84247250Y-71582743D01*
X84104392Y-71582743D01*
X83913916Y-71535124D01*
X83818678Y-71487505D01*
X83723440Y-71392267D01*
X83675821Y-71249409D01*
X83675821Y-71154171D01*
X83723440Y-71011314D01*
X83771059Y-70963695D01*
X84675821Y-70535124D02*
X83675821Y-70535124D01*
X84675821Y-69963695D02*
X84104392Y-70392267D01*
X83675821Y-69963695D02*
X84247250Y-70535124D01*
X84675821Y-68249409D02*
X84675821Y-68820838D01*
X84675821Y-68535124D02*
X83675821Y-68535124D01*
X83818678Y-68630362D01*
X83913916Y-68725600D01*
X83961535Y-68820838D01*
X162716941Y-74581269D02*
X162716941Y-74009840D01*
X163716941Y-74295555D02*
X162716941Y-74295555D01*
X163716941Y-73105078D02*
X163240750Y-73438412D01*
X163716941Y-73676507D02*
X162716941Y-73676507D01*
X162716941Y-73295554D01*
X162764560Y-73200316D01*
X162812179Y-73152697D01*
X162907417Y-73105078D01*
X163050274Y-73105078D01*
X163145512Y-73152697D01*
X163193131Y-73200316D01*
X163240750Y-73295554D01*
X163240750Y-73676507D01*
X163431227Y-72724126D02*
X163431227Y-72247935D01*
X163716941Y-72819364D02*
X162716941Y-72486031D01*
X163716941Y-72152697D01*
X163621703Y-71247935D02*
X163669322Y-71295554D01*
X163716941Y-71438411D01*
X163716941Y-71533649D01*
X163669322Y-71676507D01*
X163574084Y-71771745D01*
X163478846Y-71819364D01*
X163288370Y-71866983D01*
X163145512Y-71866983D01*
X162955036Y-71819364D01*
X162859798Y-71771745D01*
X162764560Y-71676507D01*
X162716941Y-71533649D01*
X162716941Y-71438411D01*
X162764560Y-71295554D01*
X162812179Y-71247935D01*
X163716941Y-70819364D02*
X162716941Y-70819364D01*
X163716941Y-70247935D02*
X163145512Y-70676507D01*
X162716941Y-70247935D02*
X163288370Y-70819364D01*
X162812179Y-69105078D02*
X162764560Y-69057459D01*
X162716941Y-68962221D01*
X162716941Y-68724125D01*
X162764560Y-68628887D01*
X162812179Y-68581268D01*
X162907417Y-68533649D01*
X163002655Y-68533649D01*
X163145512Y-68581268D01*
X163716941Y-69152697D01*
X163716941Y-68533649D01*
M02*
