M48
;DRILL file {KiCad 4.0.4+e1-6308~48~ubuntu14.04.1-stable} date Tue Sep 13 00:05:42 2016
;FORMAT={-:-/ absolute / inch / decimal}
FMAT,2
INCH,TZ
T1C0.004
T2C0.010
T3C0.043
%
G90
G05
M72
T1
X6.3217Y-2.8543
T2
X3.18Y-4.335
X3.18Y-4.44
X3.195Y-4.26
X3.195Y-4.365
X3.21Y-4.26
X3.21Y-4.335
X3.21Y-4.365
X3.21Y-4.44
X3.225Y-4.26
X3.225Y-4.335
X3.225Y-4.365
X3.225Y-4.44
X3.24Y-4.26
X3.24Y-4.335
X3.24Y-4.365
X3.24Y-4.44
X3.255Y-4.26
X3.255Y-4.335
X3.255Y-4.365
X3.255Y-4.44
X3.27Y-4.26
X3.27Y-4.335
X3.27Y-4.365
X3.27Y-4.44
X3.285Y-4.335
X3.285Y-4.44
X3.3Y-4.26
X3.3Y-4.335
X3.3Y-4.365
X3.3Y-4.44
X3.315Y-4.26
X3.315Y-4.335
X3.315Y-4.365
X3.315Y-4.44
X3.33Y-4.26
X3.33Y-4.335
X3.33Y-4.365
X3.33Y-4.44
X3.345Y-4.26
X3.345Y-4.335
X3.345Y-4.365
X3.345Y-4.44
X3.36Y-4.26
X3.36Y-4.335
X3.36Y-4.365
X3.36Y-4.44
X3.375Y-4.26
X3.375Y-4.365
X3.39Y-4.26
X3.39Y-4.335
X3.39Y-4.365
X3.39Y-4.44
X3.405Y-4.26
X3.405Y-4.335
X3.405Y-4.365
X3.405Y-4.44
X3.42Y-4.26
X3.42Y-4.335
X3.42Y-4.365
X3.42Y-4.44
X3.435Y-4.26
X3.435Y-4.335
X3.435Y-4.365
X3.435Y-4.44
X3.45Y-4.26
X3.45Y-4.335
X3.45Y-4.365
X3.45Y-4.44
X3.465Y-4.335
X3.465Y-4.44
X3.48Y-4.26
X3.48Y-4.335
X3.48Y-4.365
X3.48Y-4.44
X3.495Y-4.26
X3.495Y-4.335
X3.495Y-4.365
X3.495Y-4.44
X3.51Y-4.26
X3.51Y-4.335
X3.51Y-4.365
X3.51Y-4.44
X3.525Y-4.26
X3.525Y-4.335
X3.525Y-4.365
X3.525Y-4.44
X3.54Y-4.26
X3.54Y-4.335
X3.54Y-4.365
X3.54Y-4.44
X3.555Y-4.26
X3.555Y-4.365
X3.57Y-4.26
X3.57Y-4.335
X3.57Y-4.365
X3.57Y-4.44
X3.585Y-4.26
X3.585Y-4.335
X3.585Y-4.365
X3.585Y-4.44
X3.6Y-4.26
X3.6Y-4.335
X3.6Y-4.365
X3.6Y-4.44
X3.615Y-4.26
X3.615Y-4.335
X3.615Y-4.365
X3.615Y-4.44
X3.63Y-4.26
X3.63Y-4.335
X3.63Y-4.365
X3.63Y-4.44
X3.645Y-4.335
X3.645Y-4.44
X3.66Y-4.26
X3.66Y-4.335
X3.66Y-4.365
X3.66Y-4.44
X3.675Y-4.26
X3.675Y-4.335
X3.675Y-4.365
X3.675Y-4.44
X3.69Y-4.26
X3.69Y-4.335
X3.69Y-4.365
X3.69Y-4.44
X3.705Y-4.26
X3.705Y-4.335
X3.705Y-4.365
X3.705Y-4.44
X3.72Y-4.26
X3.72Y-4.335
X3.72Y-4.365
X3.72Y-4.44
X3.735Y-4.26
X3.735Y-4.365
X3.75Y-4.26
X3.75Y-4.335
X3.75Y-4.365
X3.75Y-4.44
X3.765Y-4.26
X3.765Y-4.335
X3.765Y-4.365
X3.765Y-4.44
X3.78Y-4.26
X3.78Y-4.335
X3.78Y-4.365
X3.78Y-4.44
X3.795Y-4.26
X3.795Y-4.335
X3.795Y-4.365
X3.795Y-4.44
X3.81Y-4.26
X3.81Y-4.335
X3.81Y-4.365
X3.81Y-4.44
X3.825Y-4.335
X3.825Y-4.44
X3.84Y-4.26
X3.84Y-4.335
X3.84Y-4.365
X3.84Y-4.44
X3.855Y-4.26
X3.855Y-4.335
X3.855Y-4.365
X3.855Y-4.44
X3.87Y-4.26
X3.87Y-4.335
X3.87Y-4.365
X3.87Y-4.44
X3.885Y-4.26
X3.885Y-4.335
X3.885Y-4.365
X3.885Y-4.44
X3.9Y-4.26
X3.9Y-4.335
X3.9Y-4.365
X3.9Y-4.44
X3.915Y-4.26
X3.915Y-4.365
X3.93Y-4.26
X3.93Y-4.335
X3.93Y-4.365
X3.93Y-4.44
X3.945Y-4.26
X3.945Y-4.335
X3.945Y-4.365
X3.945Y-4.44
X3.96Y-4.26
X3.96Y-4.335
X3.96Y-4.365
X3.96Y-4.44
X3.975Y-4.26
X3.975Y-4.335
X3.975Y-4.365
X3.975Y-4.44
X3.99Y-4.26
X3.99Y-4.335
X3.99Y-4.365
X3.99Y-4.44
X4.005Y-4.335
X4.005Y-4.44
X4.02Y-4.26
X4.02Y-4.335
X4.02Y-4.365
X4.02Y-4.44
X4.035Y-4.26
X4.035Y-4.335
X4.035Y-4.365
X4.035Y-4.44
X4.05Y-4.26
X4.05Y-4.335
X4.05Y-4.365
X4.05Y-4.44
X4.065Y-4.26
X4.065Y-4.335
X4.065Y-4.365
X4.065Y-4.44
X4.08Y-4.26
X4.08Y-4.335
X4.08Y-4.365
X4.08Y-4.44
X4.095Y-4.26
X4.095Y-4.365
X4.11Y-4.26
X4.11Y-4.335
X4.11Y-4.365
X4.11Y-4.44
X4.125Y-4.26
X4.125Y-4.335
X4.125Y-4.365
X4.125Y-4.44
X4.14Y-4.26
X4.14Y-4.335
X4.14Y-4.365
X4.14Y-4.44
X4.155Y-4.26
X4.155Y-4.335
X4.155Y-4.365
X4.155Y-4.44
X4.17Y-4.26
X4.17Y-4.335
X4.17Y-4.365
X4.17Y-4.44
X4.185Y-4.335
X4.185Y-4.44
X4.2Y-4.26
X4.2Y-4.335
X4.2Y-4.365
X4.2Y-4.44
X4.215Y-4.26
X4.215Y-4.335
X4.215Y-4.365
X4.215Y-4.44
X4.23Y-4.26
X4.23Y-4.335
X4.23Y-4.365
X4.23Y-4.44
X4.245Y-4.26
X4.245Y-4.335
X4.245Y-4.365
X4.245Y-4.44
X4.26Y-4.26
X4.26Y-4.335
X4.26Y-4.365
X4.26Y-4.44
X4.275Y-4.26
X4.275Y-4.365
X4.29Y-4.26
X4.29Y-4.335
X4.29Y-4.365
X4.29Y-4.44
X4.305Y-4.26
X4.305Y-4.335
X4.305Y-4.365
X4.305Y-4.44
X4.32Y-4.26
X4.32Y-4.335
X4.32Y-4.365
X4.32Y-4.44
X4.335Y-4.26
X4.335Y-4.335
X4.335Y-4.365
X4.335Y-4.44
X4.35Y-4.26
X4.35Y-4.335
X4.35Y-4.365
X4.35Y-4.44
X4.365Y-4.335
X4.365Y-4.44
X4.38Y-4.26
X4.38Y-4.335
X4.38Y-4.365
X4.38Y-4.44
X4.395Y-4.26
X4.395Y-4.335
X4.395Y-4.365
X4.395Y-4.44
X4.41Y-4.26
X4.41Y-4.335
X4.41Y-4.365
X4.41Y-4.44
X4.425Y-4.26
X4.425Y-4.335
X4.425Y-4.365
X4.425Y-4.44
X4.44Y-4.26
X4.44Y-4.335
X4.44Y-4.365
X4.44Y-4.44
X4.455Y-4.26
X4.455Y-4.365
X4.47Y-4.26
X4.47Y-4.335
X4.47Y-4.365
X4.47Y-4.44
X4.485Y-4.26
X4.485Y-4.335
X4.485Y-4.365
X4.485Y-4.44
X4.5Y-4.26
X4.5Y-4.335
X4.5Y-4.365
X4.5Y-4.44
X4.515Y-4.26
X4.515Y-4.335
X4.515Y-4.365
X4.515Y-4.44
X4.53Y-4.26
X4.53Y-4.335
X4.53Y-4.365
X4.53Y-4.44
X4.545Y-4.335
X4.545Y-4.44
X4.56Y-4.26
X4.56Y-4.335
X4.56Y-4.365
X4.56Y-4.44
X4.575Y-4.26
X4.575Y-4.335
X4.575Y-4.365
X4.575Y-4.44
X4.59Y-4.26
X4.59Y-4.335
X4.59Y-4.365
X4.59Y-4.44
X4.605Y-4.26
X4.605Y-4.335
X4.605Y-4.365
X4.605Y-4.44
X4.62Y-4.26
X4.62Y-4.335
X4.62Y-4.365
X4.62Y-4.44
X4.635Y-4.26
X4.635Y-4.365
X4.65Y-4.26
X4.65Y-4.335
X4.65Y-4.365
X4.65Y-4.44
X4.665Y-4.26
X4.665Y-4.335
X4.665Y-4.365
X4.665Y-4.44
X4.68Y-4.26
X4.68Y-4.335
X4.68Y-4.365
X4.68Y-4.44
X4.695Y-4.26
X4.695Y-4.335
X4.695Y-4.365
X4.695Y-4.44
X4.71Y-4.26
X4.71Y-4.335
X4.71Y-4.365
X4.71Y-4.44
X4.725Y-4.335
X4.725Y-4.44
X4.74Y-4.26
X4.74Y-4.335
X4.74Y-4.365
X4.74Y-4.44
X4.755Y-4.26
X4.755Y-4.335
X4.755Y-4.365
X4.755Y-4.44
X4.77Y-4.26
X4.77Y-4.335
X4.77Y-4.365
X4.77Y-4.44
X4.785Y-4.26
X4.785Y-4.335
X4.785Y-4.365
X4.785Y-4.44
X4.8Y-4.26
X4.8Y-4.335
X4.8Y-4.365
X4.8Y-4.44
X4.815Y-4.26
X4.815Y-4.365
X4.83Y-4.26
X4.83Y-4.335
X4.83Y-4.365
X4.83Y-4.44
X4.845Y-4.26
X4.845Y-4.335
X4.845Y-4.365
X4.845Y-4.44
X4.86Y-4.26
X4.86Y-4.335
X4.86Y-4.365
X4.86Y-4.44
X4.875Y-4.26
X4.875Y-4.335
X4.875Y-4.365
X4.875Y-4.44
X4.89Y-4.26
X4.89Y-4.335
X4.89Y-4.365
X4.89Y-4.44
X4.905Y-4.335
X4.905Y-4.44
X4.92Y-4.26
X4.92Y-4.335
X4.92Y-4.365
X4.92Y-4.44
X4.935Y-4.26
X4.935Y-4.335
X4.935Y-4.365
X4.935Y-4.44
X4.95Y-4.26
X4.95Y-4.335
X4.95Y-4.365
X4.95Y-4.44
X4.965Y-4.26
X4.965Y-4.335
X4.965Y-4.365
X4.965Y-4.44
X4.98Y-4.26
X4.98Y-4.335
X4.98Y-4.365
X4.98Y-4.44
X4.995Y-4.26
X4.995Y-4.365
X5.01Y-4.26
X5.01Y-4.335
X5.01Y-4.365
X5.01Y-4.44
X5.025Y-4.26
X5.025Y-4.335
X5.025Y-4.365
X5.025Y-4.44
X5.04Y-4.26
X5.04Y-4.335
X5.04Y-4.365
X5.04Y-4.44
X5.055Y-4.26
X5.055Y-4.335
X5.055Y-4.365
X5.055Y-4.44
X5.07Y-4.26
X5.07Y-4.335
X5.07Y-4.365
X5.07Y-4.44
X5.085Y-4.335
X5.085Y-4.44
X5.1Y-4.26
X5.1Y-4.335
X5.1Y-4.365
X5.1Y-4.44
X5.115Y-4.26
X5.115Y-4.335
X5.115Y-4.365
X5.115Y-4.44
X5.13Y-4.26
X5.13Y-4.335
X5.13Y-4.365
X5.13Y-4.44
X5.145Y-4.26
X5.145Y-4.335
X5.145Y-4.365
X5.145Y-4.44
X5.16Y-4.26
X5.16Y-4.335
X5.16Y-4.365
X5.16Y-4.44
X5.175Y-4.26
X5.175Y-4.365
X5.19Y-4.26
X5.19Y-4.335
X5.19Y-4.365
X5.19Y-4.44
X5.205Y-4.26
X5.205Y-4.335
X5.205Y-4.365
X5.205Y-4.44
X5.22Y-4.26
X5.22Y-4.335
X5.22Y-4.365
X5.22Y-4.44
X5.235Y-4.26
X5.235Y-4.335
X5.235Y-4.365
X5.235Y-4.44
X5.25Y-4.26
X5.25Y-4.335
X5.25Y-4.365
X5.25Y-4.44
X5.265Y-4.335
X5.265Y-4.44
X5.28Y-4.26
X5.28Y-4.335
X5.28Y-4.365
X5.28Y-4.44
X5.295Y-4.26
X5.295Y-4.335
X5.295Y-4.365
X5.295Y-4.44
X5.31Y-4.26
X5.31Y-4.335
X5.31Y-4.365
X5.31Y-4.44
X5.325Y-4.26
X5.325Y-4.335
X5.325Y-4.365
X5.325Y-4.44
X5.34Y-4.26
X5.34Y-4.335
X5.34Y-4.365
X5.34Y-4.44
X5.355Y-4.26
X5.355Y-4.365
X5.37Y-4.26
X5.37Y-4.335
X5.37Y-4.365
X5.37Y-4.44
X5.385Y-4.26
X5.385Y-4.335
X5.385Y-4.365
X5.385Y-4.44
X5.4Y-4.26
X5.4Y-4.335
X5.4Y-4.365
X5.4Y-4.44
X5.415Y-4.26
X5.415Y-4.335
X5.415Y-4.365
X5.415Y-4.44
X5.43Y-4.26
X5.43Y-4.335
X5.43Y-4.365
X5.43Y-4.44
X5.445Y-4.335
X5.445Y-4.44
X5.46Y-4.26
X5.46Y-4.335
X5.46Y-4.365
X5.46Y-4.44
X5.475Y-4.26
X5.475Y-4.335
X5.475Y-4.365
X5.475Y-4.44
X5.49Y-4.26
X5.49Y-4.335
X5.49Y-4.365
X5.49Y-4.44
X5.505Y-4.26
X5.505Y-4.335
X5.505Y-4.365
X5.505Y-4.44
X5.52Y-4.26
X5.52Y-4.335
X5.52Y-4.365
X5.52Y-4.44
X5.535Y-4.26
X5.535Y-4.365
X5.55Y-4.26
X5.55Y-4.335
X5.55Y-4.365
X5.55Y-4.44
X5.565Y-4.26
X5.565Y-4.335
X5.565Y-4.365
X5.565Y-4.44
X5.58Y-4.26
X5.58Y-4.335
X5.58Y-4.365
X5.58Y-4.44
X5.595Y-4.26
X5.595Y-4.335
X5.595Y-4.365
X5.595Y-4.44
X5.61Y-4.26
X5.61Y-4.335
X5.61Y-4.365
X5.61Y-4.44
X5.625Y-4.335
X5.625Y-4.44
X5.64Y-4.26
X5.64Y-4.335
X5.64Y-4.365
X5.64Y-4.44
X5.655Y-4.26
X5.655Y-4.335
X5.655Y-4.365
X5.655Y-4.44
X5.67Y-4.26
X5.67Y-4.335
X5.67Y-4.365
X5.67Y-4.44
X5.685Y-4.26
X5.685Y-4.335
X5.685Y-4.365
X5.685Y-4.44
X5.7Y-4.26
X5.7Y-4.335
X5.7Y-4.365
X5.7Y-4.44
X5.715Y-4.26
X5.715Y-4.365
X5.73Y-4.26
X5.73Y-4.335
X5.73Y-4.365
X5.73Y-4.44
X5.745Y-4.26
X5.745Y-4.335
X5.745Y-4.365
X5.745Y-4.44
X5.76Y-4.26
X5.76Y-4.335
X5.76Y-4.365
X5.76Y-4.44
X5.775Y-4.26
X5.775Y-4.335
X5.775Y-4.365
X5.775Y-4.44
X5.79Y-4.26
X5.79Y-4.335
X5.79Y-4.365
X5.79Y-4.44
X5.805Y-4.335
X5.805Y-4.44
X5.82Y-4.26
X5.82Y-4.335
X5.82Y-4.365
X5.82Y-4.44
X5.835Y-4.26
X5.835Y-4.335
X5.835Y-4.365
X5.835Y-4.44
X5.85Y-4.26
X5.85Y-4.335
X5.85Y-4.365
X5.85Y-4.44
X5.865Y-4.26
X5.865Y-4.335
X5.865Y-4.365
X5.865Y-4.44
X5.88Y-4.26
X5.88Y-4.335
X5.88Y-4.365
X5.88Y-4.44
X5.895Y-4.26
X5.895Y-4.365
X5.91Y-4.26
X5.91Y-4.335
X5.91Y-4.365
X5.91Y-4.44
X5.925Y-4.26
X5.925Y-4.335
X5.925Y-4.365
X5.925Y-4.44
X5.94Y-4.26
X5.94Y-4.335
X5.94Y-4.365
X5.94Y-4.44
X5.955Y-4.26
X5.955Y-4.335
X5.955Y-4.365
X5.955Y-4.44
X5.97Y-4.26
X5.97Y-4.335
X5.97Y-4.365
X5.97Y-4.44
X5.985Y-4.335
X5.985Y-4.44
X6.Y-4.26
X6.Y-4.335
X6.Y-4.365
X6.Y-4.44
X6.015Y-4.26
X6.015Y-4.335
X6.015Y-4.365
X6.015Y-4.44
X6.03Y-4.26
X6.03Y-4.335
X6.03Y-4.365
X6.03Y-4.44
X6.045Y-4.26
X6.045Y-4.335
X6.045Y-4.365
X6.045Y-4.44
X6.06Y-4.26
X6.06Y-4.335
X6.06Y-4.365
X6.06Y-4.44
X6.075Y-4.26
X6.075Y-4.365
X6.09Y-4.26
X6.09Y-4.335
X6.09Y-4.365
X6.09Y-4.44
X6.105Y-4.26
X6.105Y-4.335
X6.105Y-4.365
X6.105Y-4.44
X6.12Y-4.26
X6.12Y-4.335
X6.12Y-4.365
X6.12Y-4.44
X6.135Y-4.26
X6.135Y-4.335
X6.135Y-4.365
X6.135Y-4.44
X6.15Y-4.26
X6.15Y-4.335
X6.15Y-4.365
X6.15Y-4.44
X6.165Y-4.335
X6.165Y-4.44
X6.18Y-4.26
X6.18Y-4.335
X6.18Y-4.365
X6.18Y-4.44
X6.195Y-4.26
X6.195Y-4.335
X6.195Y-4.365
X6.195Y-4.44
X6.21Y-3.555
X6.21Y-4.26
X6.21Y-4.335
X6.21Y-4.365
X6.21Y-4.44
X6.225Y-4.26
X6.225Y-4.335
X6.225Y-4.365
X6.225Y-4.44
X6.24Y-4.26
X6.24Y-4.335
X6.24Y-4.365
X6.24Y-4.44
X6.255Y-4.26
X6.255Y-4.365
X6.27Y-4.26
X6.27Y-4.335
X6.27Y-4.365
X6.27Y-4.44
X6.285Y-4.26
X6.285Y-4.335
X6.285Y-4.365
X6.285Y-4.44
X6.3Y-4.26
X6.3Y-4.335
X6.3Y-4.365
X6.3Y-4.44
X6.315Y-4.26
X6.315Y-4.335
X6.315Y-4.365
X6.315Y-4.44
X6.33Y-4.26
X6.33Y-4.335
X6.33Y-4.365
X6.33Y-4.44
X6.345Y-4.335
X6.345Y-4.44
X6.36Y-4.26
X6.36Y-4.335
X6.36Y-4.365
X6.36Y-4.44
X6.375Y-4.26
X6.375Y-4.335
X6.375Y-4.365
X6.375Y-4.44
X6.39Y-4.26
X6.39Y-4.335
X6.39Y-4.365
X6.39Y-4.44
X6.405Y-4.26
X6.405Y-4.335
X6.405Y-4.365
X6.405Y-4.44
X6.42Y-4.26
X6.42Y-4.335
X6.42Y-4.365
X6.42Y-4.44
X6.48Y-3.585
T3
X3.4028Y-2.7559
X3.4028Y-2.8559
X6.3295Y-2.7524
X6.3295Y-2.8524
T0
M30
