M48
;DRILL file {KiCad 4.0.3+e1-6302~38~ubuntu15.10.1-stable} date Mon Sep 12 17:58:42 2016
;FORMAT={-:-/ absolute / inch / decimal}
FMAT,2
INCH,TZ
T1C0.004
T2C0.043
%
G90
G05
M72
T1
X3.1824Y-4.2552
X3.1824Y-4.3632
X3.1896Y-4.2552
X3.1896Y-4.3416
X3.1896Y-4.3632
X3.1896Y-4.4496
X3.1968Y-4.2552
X3.1968Y-4.3416
X3.1968Y-4.3632
X3.1968Y-4.4496
X3.204Y-4.2552
X3.204Y-4.3416
X3.204Y-4.3632
X3.204Y-4.4496
X3.2112Y-4.2552
X3.2112Y-4.3416
X3.2112Y-4.3632
X3.2112Y-4.4496
X3.2184Y-4.2552
X3.2184Y-4.3416
X3.2184Y-4.3632
X3.2184Y-4.4496
X3.2256Y-4.2552
X3.2256Y-4.3416
X3.2256Y-4.3632
X3.2256Y-4.4496
X3.2328Y-4.2552
X3.2328Y-4.3416
X3.2328Y-4.3632
X3.2328Y-4.4496
X3.24Y-4.2552
X3.24Y-4.3416
X3.24Y-4.3632
X3.24Y-4.4496
X3.2472Y-4.2552
X3.2472Y-4.3416
X3.2472Y-4.3632
X3.2472Y-4.4496
X3.2544Y-4.2552
X3.2544Y-4.3416
X3.2544Y-4.3632
X3.2544Y-4.4496
X3.2616Y-4.2552
X3.2616Y-4.3416
X3.2616Y-4.3632
X3.2616Y-4.4496
X3.2688Y-4.2552
X3.2688Y-4.3416
X3.2688Y-4.3632
X3.2688Y-4.4496
X3.276Y-4.2552
X3.276Y-4.3416
X3.276Y-4.3632
X3.276Y-4.4496
X3.2832Y-4.2552
X3.2832Y-4.3416
X3.2832Y-4.3632
X3.2832Y-4.4496
X3.2904Y-4.2552
X3.2904Y-4.3416
X3.2904Y-4.3632
X3.2904Y-4.4496
X3.2976Y-4.2552
X3.2976Y-4.3416
X3.2976Y-4.3632
X3.2976Y-4.4496
X3.3048Y-4.2552
X3.3048Y-4.3416
X3.3048Y-4.3632
X3.3048Y-4.4496
X3.312Y-4.2552
X3.312Y-4.3416
X3.312Y-4.3632
X3.312Y-4.4496
X3.3192Y-4.2552
X3.3192Y-4.3416
X3.3192Y-4.3632
X3.3192Y-4.4496
X3.3264Y-4.2552
X3.3264Y-4.3416
X3.3264Y-4.3632
X3.3264Y-4.4496
X3.3336Y-4.2552
X3.3336Y-4.3416
X3.3336Y-4.3632
X3.3336Y-4.4496
X3.3408Y-4.2552
X3.3408Y-4.3416
X3.3408Y-4.3632
X3.3408Y-4.4496
X3.348Y-4.2552
X3.348Y-4.3416
X3.348Y-4.3632
X3.348Y-4.4496
X3.3552Y-4.2552
X3.3552Y-4.3416
X3.3552Y-4.3632
X3.3552Y-4.4496
X3.3624Y-4.2552
X3.3624Y-4.3416
X3.3624Y-4.3632
X3.3624Y-4.4496
X3.3696Y-4.2552
X3.3696Y-4.3416
X3.3696Y-4.3632
X3.3696Y-4.4496
X3.3768Y-4.2552
X3.3768Y-4.3416
X3.3768Y-4.3632
X3.3768Y-4.4496
X3.384Y-4.2552
X3.384Y-4.3416
X3.384Y-4.3632
X3.384Y-4.4496
X3.3912Y-4.2552
X3.3912Y-4.3416
X3.3912Y-4.3632
X3.3912Y-4.4496
X3.3984Y-4.2552
X3.3984Y-4.3416
X3.3984Y-4.3632
X3.3984Y-4.4496
X3.4056Y-4.2552
X3.4056Y-4.3416
X3.4056Y-4.3632
X3.4056Y-4.4496
X3.4128Y-4.2552
X3.4128Y-4.3416
X3.4128Y-4.3632
X3.4128Y-4.4496
X3.42Y-4.2552
X3.42Y-4.3416
X3.42Y-4.3632
X3.42Y-4.4496
X3.4272Y-4.2552
X3.4272Y-4.3416
X3.4272Y-4.3632
X3.4272Y-4.4496
X3.4344Y-4.2552
X3.4344Y-4.3416
X3.4344Y-4.3632
X3.4344Y-4.4496
X3.4416Y-4.2552
X3.4416Y-4.3416
X3.4416Y-4.3632
X3.4416Y-4.4496
X3.4488Y-4.2552
X3.4488Y-4.3416
X3.4488Y-4.3632
X3.4488Y-4.4496
X3.456Y-4.2552
X3.456Y-4.3416
X3.456Y-4.3632
X3.456Y-4.4496
X3.4632Y-4.2552
X3.4632Y-4.3416
X3.4632Y-4.3632
X3.4632Y-4.4496
X3.4704Y-4.2552
X3.4704Y-4.3416
X3.4704Y-4.3632
X3.4704Y-4.4496
X3.4776Y-4.2552
X3.4776Y-4.3416
X3.4776Y-4.3632
X3.4776Y-4.4496
X3.4848Y-4.2552
X3.4848Y-4.3416
X3.4848Y-4.3632
X3.4848Y-4.4496
X3.492Y-4.2552
X3.492Y-4.3416
X3.492Y-4.3632
X3.492Y-4.4496
X3.4992Y-4.2552
X3.4992Y-4.3416
X3.4992Y-4.3632
X3.4992Y-4.4496
X3.5064Y-4.2552
X3.5064Y-4.3416
X3.5064Y-4.3632
X3.5064Y-4.4496
X3.5136Y-4.2552
X3.5136Y-4.3416
X3.5136Y-4.3632
X3.5136Y-4.4496
X3.5208Y-4.2552
X3.5208Y-4.3416
X3.5208Y-4.3632
X3.5208Y-4.4496
X3.528Y-4.2552
X3.528Y-4.3416
X3.528Y-4.3632
X3.528Y-4.4496
X3.5352Y-4.2552
X3.5352Y-4.3416
X3.5352Y-4.3632
X3.5352Y-4.4496
X3.5424Y-4.2552
X3.5424Y-4.3416
X3.5424Y-4.3632
X3.5424Y-4.4496
X3.5496Y-4.2552
X3.5496Y-4.3416
X3.5496Y-4.3632
X3.5496Y-4.4496
X3.5568Y-4.2552
X3.5568Y-4.3416
X3.5568Y-4.3632
X3.5568Y-4.4496
X3.564Y-4.2552
X3.564Y-4.3416
X3.564Y-4.3632
X3.564Y-4.4496
X3.5712Y-4.2552
X3.5712Y-4.3416
X3.5712Y-4.3632
X3.5712Y-4.4496
X3.5784Y-4.2552
X3.5784Y-4.3416
X3.5784Y-4.3632
X3.5784Y-4.4496
X3.5856Y-4.2552
X3.5856Y-4.3416
X3.5856Y-4.3632
X3.5856Y-4.4496
X3.5928Y-4.2552
X3.5928Y-4.3416
X3.5928Y-4.3632
X3.5928Y-4.4496
X3.6Y-4.2552
X3.6Y-4.3416
X3.6Y-4.3632
X3.6Y-4.4496
X3.6072Y-4.2552
X3.6072Y-4.3416
X3.6072Y-4.3632
X3.6072Y-4.4496
X3.6144Y-4.2552
X3.6144Y-4.3416
X3.6144Y-4.3632
X3.6144Y-4.4496
X3.6216Y-4.2552
X3.6216Y-4.3416
X3.6216Y-4.3632
X3.6216Y-4.4496
X3.6288Y-4.2552
X3.6288Y-4.3416
X3.6288Y-4.3632
X3.6288Y-4.4496
X3.636Y-4.2552
X3.636Y-4.3416
X3.636Y-4.3632
X3.636Y-4.4496
X3.6432Y-4.2552
X3.6432Y-4.3416
X3.6432Y-4.3632
X3.6432Y-4.4496
X3.6504Y-4.2552
X3.6504Y-4.3416
X3.6504Y-4.3632
X3.6504Y-4.4496
X3.6576Y-4.2552
X3.6576Y-4.3416
X3.6576Y-4.3632
X3.6576Y-4.4496
X3.6648Y-4.2552
X3.6648Y-4.3416
X3.6648Y-4.3632
X3.6648Y-4.4496
X3.672Y-4.2552
X3.672Y-4.3416
X3.672Y-4.3632
X3.672Y-4.4496
X3.6792Y-4.2552
X3.6792Y-4.3416
X3.6792Y-4.3632
X3.6792Y-4.4496
X3.6864Y-4.2552
X3.6864Y-4.3416
X3.6864Y-4.3632
X3.6864Y-4.4496
X3.6936Y-4.2552
X3.6936Y-4.3416
X3.6936Y-4.3632
X3.6936Y-4.4496
X3.7008Y-4.2552
X3.7008Y-4.3416
X3.7008Y-4.3632
X3.7008Y-4.4496
X3.708Y-4.2552
X3.708Y-4.3416
X3.708Y-4.3632
X3.708Y-4.4496
X3.7152Y-4.2552
X3.7152Y-4.3416
X3.7152Y-4.3632
X3.7152Y-4.4496
X3.7224Y-4.2552
X3.7224Y-4.3416
X3.7224Y-4.3632
X3.7224Y-4.4496
X3.7296Y-4.2552
X3.7296Y-4.3416
X3.7296Y-4.3632
X3.7296Y-4.4496
X3.7368Y-4.2552
X3.7368Y-4.3416
X3.7368Y-4.3632
X3.7368Y-4.4496
X3.744Y-4.2552
X3.744Y-4.3416
X3.744Y-4.3632
X3.744Y-4.4496
X3.7512Y-4.2552
X3.7512Y-4.3416
X3.7512Y-4.3632
X3.7512Y-4.4496
X3.7584Y-4.2552
X3.7584Y-4.3416
X3.7584Y-4.3632
X3.7584Y-4.4496
X3.7656Y-4.2552
X3.7656Y-4.3416
X3.7656Y-4.3632
X3.7656Y-4.4496
X3.7728Y-4.2552
X3.7728Y-4.3416
X3.7728Y-4.3632
X3.7728Y-4.4496
X3.78Y-4.2552
X3.78Y-4.3416
X3.78Y-4.3632
X3.78Y-4.4496
X3.7872Y-4.2552
X3.7872Y-4.3416
X3.7872Y-4.3632
X3.7872Y-4.4496
X3.7944Y-4.2552
X3.7944Y-4.3416
X3.7944Y-4.3632
X3.7944Y-4.4496
X3.8016Y-4.2552
X3.8016Y-4.3416
X3.8016Y-4.3632
X3.8016Y-4.4496
X3.8088Y-4.2552
X3.8088Y-4.3416
X3.8088Y-4.3632
X3.8088Y-4.4496
X3.816Y-4.2552
X3.816Y-4.3416
X3.816Y-4.3632
X3.816Y-4.4496
X3.8232Y-4.2552
X3.8232Y-4.3416
X3.8232Y-4.3632
X3.8232Y-4.4496
X3.8304Y-4.2552
X3.8304Y-4.3416
X3.8304Y-4.3632
X3.8304Y-4.4496
X3.8376Y-4.2552
X3.8376Y-4.3416
X3.8376Y-4.3632
X3.8376Y-4.4496
X3.8448Y-4.2552
X3.8448Y-4.3416
X3.8448Y-4.3632
X3.8448Y-4.4496
X3.852Y-4.2552
X3.852Y-4.3416
X3.852Y-4.3632
X3.852Y-4.4496
X3.8592Y-4.2552
X3.8592Y-4.3416
X3.8592Y-4.3632
X3.8592Y-4.4496
X3.8664Y-4.2552
X3.8664Y-4.3416
X3.8664Y-4.3632
X3.8664Y-4.4496
X3.8736Y-4.2552
X3.8736Y-4.3416
X3.8736Y-4.3632
X3.8736Y-4.4496
X3.8808Y-4.2552
X3.8808Y-4.3416
X3.8808Y-4.3632
X3.8808Y-4.4496
X3.888Y-4.2552
X3.888Y-4.3416
X3.888Y-4.3632
X3.888Y-4.4496
X3.8952Y-4.2552
X3.8952Y-4.3416
X3.8952Y-4.3632
X3.8952Y-4.4496
X3.9024Y-4.2552
X3.9024Y-4.3416
X3.9024Y-4.3632
X3.9024Y-4.4496
X3.9096Y-4.2552
X3.9096Y-4.3416
X3.9096Y-4.3632
X3.9096Y-4.4496
X3.9168Y-4.2552
X3.9168Y-4.3416
X3.9168Y-4.3632
X3.9168Y-4.4496
X3.924Y-4.2552
X3.924Y-4.3416
X3.924Y-4.3632
X3.924Y-4.4496
X3.9312Y-4.2552
X3.9312Y-4.3416
X3.9312Y-4.3632
X3.9312Y-4.4496
X3.9384Y-4.2552
X3.9384Y-4.3416
X3.9384Y-4.3632
X3.9384Y-4.4496
X3.9456Y-4.2552
X3.9456Y-4.3416
X3.9456Y-4.3632
X3.9456Y-4.4496
X3.9528Y-4.2552
X3.9528Y-4.3416
X3.9528Y-4.3632
X3.9528Y-4.4496
X3.96Y-4.2552
X3.96Y-4.3416
X3.96Y-4.3632
X3.96Y-4.4496
X3.9672Y-4.2552
X3.9672Y-4.3416
X3.9672Y-4.3632
X3.9672Y-4.4496
X3.9744Y-4.2552
X3.9744Y-4.3416
X3.9744Y-4.3632
X3.9744Y-4.4496
X3.9816Y-4.2552
X3.9816Y-4.3416
X3.9816Y-4.3632
X3.9816Y-4.4496
X3.9888Y-4.2552
X3.9888Y-4.3416
X3.9888Y-4.3632
X3.9888Y-4.4496
X3.996Y-4.2552
X3.996Y-4.3416
X3.996Y-4.3632
X3.996Y-4.4496
X4.0032Y-4.2552
X4.0032Y-4.3416
X4.0032Y-4.3632
X4.0032Y-4.4496
X4.0104Y-4.2552
X4.0104Y-4.3416
X4.0104Y-4.3632
X4.0104Y-4.4496
X4.0176Y-4.2552
X4.0176Y-4.3416
X4.0176Y-4.3632
X4.0176Y-4.4496
X4.0248Y-4.2552
X4.0248Y-4.3416
X4.0248Y-4.3632
X4.0248Y-4.4496
X4.032Y-4.2552
X4.032Y-4.3416
X4.032Y-4.3632
X4.032Y-4.4496
X4.0392Y-4.2552
X4.0392Y-4.3416
X4.0392Y-4.3632
X4.0392Y-4.4496
X4.0464Y-4.2552
X4.0464Y-4.3416
X4.0464Y-4.3632
X4.0464Y-4.4496
X4.0536Y-4.2552
X4.0536Y-4.3416
X4.0536Y-4.3632
X4.0536Y-4.4496
X4.0608Y-4.2552
X4.0608Y-4.3416
X4.0608Y-4.3632
X4.0608Y-4.4496
X4.068Y-4.2552
X4.068Y-4.3416
X4.068Y-4.3632
X4.068Y-4.4496
X4.0752Y-4.2552
X4.0752Y-4.3416
X4.0752Y-4.3632
X4.0752Y-4.4496
X4.0824Y-4.2552
X4.0824Y-4.3416
X4.0824Y-4.3632
X4.0824Y-4.4496
X4.0896Y-4.2552
X4.0896Y-4.3416
X4.0896Y-4.3632
X4.0896Y-4.4496
X4.0968Y-4.2552
X4.0968Y-4.3416
X4.0968Y-4.3632
X4.0968Y-4.4496
X4.104Y-4.2552
X4.104Y-4.3416
X4.104Y-4.3632
X4.104Y-4.4496
X4.1112Y-4.2552
X4.1112Y-4.3416
X4.1112Y-4.3632
X4.1112Y-4.4496
X4.1184Y-4.2552
X4.1184Y-4.3416
X4.1184Y-4.3632
X4.1184Y-4.4496
X4.1256Y-4.2552
X4.1256Y-4.3416
X4.1256Y-4.3632
X4.1256Y-4.4496
X4.1328Y-4.2552
X4.1328Y-4.3416
X4.1328Y-4.3632
X4.1328Y-4.4496
X4.14Y-4.2552
X4.14Y-4.3416
X4.14Y-4.3632
X4.14Y-4.4496
X4.1472Y-4.2552
X4.1472Y-4.3416
X4.1472Y-4.3632
X4.1472Y-4.4496
X4.1544Y-4.2552
X4.1544Y-4.3416
X4.1544Y-4.3632
X4.1544Y-4.4496
X4.1616Y-4.2552
X4.1616Y-4.3416
X4.1616Y-4.3632
X4.1616Y-4.4496
X4.1688Y-4.2552
X4.1688Y-4.3416
X4.1688Y-4.3632
X4.1688Y-4.4496
X4.176Y-4.2552
X4.176Y-4.3416
X4.176Y-4.3632
X4.176Y-4.4496
X4.1832Y-4.2552
X4.1832Y-4.3416
X4.1832Y-4.3632
X4.1832Y-4.4496
X4.1904Y-4.2552
X4.1904Y-4.3416
X4.1904Y-4.3632
X4.1904Y-4.4496
X4.1976Y-4.2552
X4.1976Y-4.3416
X4.1976Y-4.3632
X4.1976Y-4.4496
X4.2048Y-4.2552
X4.2048Y-4.3416
X4.2048Y-4.3632
X4.2048Y-4.4496
X4.212Y-4.2552
X4.212Y-4.3416
X4.212Y-4.3632
X4.212Y-4.4496
X4.2192Y-4.2552
X4.2192Y-4.3416
X4.2192Y-4.3632
X4.2192Y-4.4496
X4.2264Y-4.2552
X4.2264Y-4.3416
X4.2264Y-4.3632
X4.2264Y-4.4496
X4.2336Y-4.2552
X4.2336Y-4.3416
X4.2336Y-4.3632
X4.2336Y-4.4496
X4.2408Y-4.2552
X4.2408Y-4.3416
X4.2408Y-4.3632
X4.2408Y-4.4496
X4.248Y-4.2552
X4.248Y-4.3416
X4.248Y-4.3632
X4.248Y-4.4496
X4.2552Y-4.2552
X4.2552Y-4.3416
X4.2552Y-4.3632
X4.2552Y-4.4496
X4.2624Y-4.2552
X4.2624Y-4.3416
X4.2624Y-4.3632
X4.2624Y-4.4496
X4.2696Y-4.2552
X4.2696Y-4.3416
X4.2696Y-4.3632
X4.2696Y-4.4496
X4.2768Y-4.2552
X4.2768Y-4.3416
X4.2768Y-4.3632
X4.2768Y-4.4496
X4.284Y-4.2552
X4.284Y-4.3416
X4.284Y-4.3632
X4.284Y-4.4496
X4.2912Y-4.2552
X4.2912Y-4.3416
X4.2912Y-4.3632
X4.2912Y-4.4496
X4.2984Y-4.2552
X4.2984Y-4.3416
X4.2984Y-4.3632
X4.2984Y-4.4496
X4.3056Y-4.2552
X4.3056Y-4.3416
X4.3056Y-4.3632
X4.3056Y-4.4496
X4.3128Y-4.2552
X4.3128Y-4.3416
X4.3128Y-4.3632
X4.3128Y-4.4496
X4.32Y-4.2552
X4.32Y-4.3416
X4.32Y-4.3632
X4.32Y-4.4496
X4.3272Y-4.2552
X4.3272Y-4.3416
X4.3272Y-4.3632
X4.3272Y-4.4496
X4.3344Y-4.2552
X4.3344Y-4.3416
X4.3344Y-4.3632
X4.3344Y-4.4496
X4.3416Y-4.2552
X4.3416Y-4.3416
X4.3416Y-4.3632
X4.3416Y-4.4496
X4.3488Y-4.2552
X4.3488Y-4.3416
X4.3488Y-4.3632
X4.3488Y-4.4496
X4.356Y-4.2552
X4.356Y-4.3416
X4.356Y-4.3632
X4.356Y-4.4496
X4.3632Y-4.2552
X4.3632Y-4.3416
X4.3632Y-4.3632
X4.3632Y-4.4496
X4.3704Y-4.2552
X4.3704Y-4.3416
X4.3704Y-4.3632
X4.3704Y-4.4496
X4.3776Y-4.2552
X4.3776Y-4.3416
X4.3776Y-4.3632
X4.3776Y-4.4496
X4.3848Y-4.2552
X4.3848Y-4.3416
X4.3848Y-4.3632
X4.3848Y-4.4496
X4.392Y-4.2552
X4.392Y-4.3416
X4.392Y-4.3632
X4.392Y-4.4496
X4.3992Y-4.2552
X4.3992Y-4.3416
X4.3992Y-4.3632
X4.3992Y-4.4496
X4.4064Y-4.2552
X4.4064Y-4.3416
X4.4064Y-4.3632
X4.4064Y-4.4496
X4.4136Y-4.2552
X4.4136Y-4.3416
X4.4136Y-4.3632
X4.4136Y-4.4496
X4.4208Y-4.2552
X4.4208Y-4.3416
X4.4208Y-4.3632
X4.4208Y-4.4496
X4.428Y-4.2552
X4.428Y-4.3416
X4.428Y-4.3632
X4.428Y-4.4496
X4.4352Y-4.2552
X4.4352Y-4.3416
X4.4352Y-4.3632
X4.4352Y-4.4496
X4.4424Y-4.2552
X4.4424Y-4.3416
X4.4424Y-4.3632
X4.4424Y-4.4496
X4.4496Y-4.2552
X4.4496Y-4.3416
X4.4496Y-4.3632
X4.4496Y-4.4496
X4.4568Y-4.2552
X4.4568Y-4.3416
X4.4568Y-4.3632
X4.4568Y-4.4496
X4.464Y-4.2552
X4.464Y-4.3416
X4.464Y-4.3632
X4.464Y-4.4496
X4.4712Y-4.2552
X4.4712Y-4.3416
X4.4712Y-4.3632
X4.4712Y-4.4496
X4.4784Y-4.2552
X4.4784Y-4.3416
X4.4784Y-4.3632
X4.4784Y-4.4496
X4.4856Y-4.2552
X4.4856Y-4.3416
X4.4856Y-4.3632
X4.4856Y-4.4496
X4.4928Y-4.2552
X4.4928Y-4.3416
X4.4928Y-4.3632
X4.4928Y-4.4496
X4.5Y-4.2552
X4.5Y-4.3416
X4.5Y-4.3632
X4.5Y-4.4496
X4.5072Y-4.2552
X4.5072Y-4.3416
X4.5072Y-4.3632
X4.5072Y-4.4496
X4.5144Y-4.2552
X4.5144Y-4.3416
X4.5144Y-4.3632
X4.5144Y-4.4496
X4.5216Y-4.2552
X4.5216Y-4.3416
X4.5216Y-4.3632
X4.5216Y-4.4496
X4.5288Y-4.2552
X4.5288Y-4.3416
X4.5288Y-4.3632
X4.5288Y-4.4496
X4.536Y-4.2552
X4.536Y-4.3416
X4.536Y-4.3632
X4.536Y-4.4496
X4.5432Y-4.2552
X4.5432Y-4.3416
X4.5432Y-4.3632
X4.5432Y-4.4496
X4.5504Y-4.2552
X4.5504Y-4.3416
X4.5504Y-4.3632
X4.5504Y-4.4496
X4.5576Y-4.2552
X4.5576Y-4.3416
X4.5576Y-4.3632
X4.5576Y-4.4496
X4.5648Y-4.2552
X4.5648Y-4.3416
X4.5648Y-4.3632
X4.5648Y-4.4496
X4.572Y-4.2552
X4.572Y-4.3416
X4.572Y-4.3632
X4.572Y-4.4496
X4.5792Y-4.2552
X4.5792Y-4.3416
X4.5792Y-4.3632
X4.5792Y-4.4496
X4.5864Y-4.2552
X4.5864Y-4.3416
X4.5864Y-4.3632
X4.5864Y-4.4496
X4.5936Y-4.2552
X4.5936Y-4.3416
X4.5936Y-4.3632
X4.5936Y-4.4496
X4.6008Y-4.2552
X4.6008Y-4.3416
X4.6008Y-4.3632
X4.6008Y-4.4496
X4.608Y-4.2552
X4.608Y-4.3416
X4.608Y-4.3632
X4.608Y-4.4496
X4.6152Y-4.2552
X4.6152Y-4.3416
X4.6152Y-4.3632
X4.6152Y-4.4496
X4.6224Y-4.2552
X4.6224Y-4.3416
X4.6224Y-4.3632
X4.6224Y-4.4496
X4.6296Y-4.2552
X4.6296Y-4.3416
X4.6296Y-4.3632
X4.6296Y-4.4496
X4.6368Y-4.2552
X4.6368Y-4.3416
X4.6368Y-4.3632
X4.6368Y-4.4496
X4.644Y-4.2552
X4.644Y-4.3416
X4.644Y-4.3632
X4.644Y-4.4496
X4.6512Y-4.2552
X4.6512Y-4.3416
X4.6512Y-4.3632
X4.6512Y-4.4496
X4.6584Y-4.2552
X4.6584Y-4.3416
X4.6584Y-4.3632
X4.6584Y-4.4496
X4.6656Y-4.2552
X4.6656Y-4.3416
X4.6656Y-4.3632
X4.6656Y-4.4496
X4.6728Y-4.2552
X4.6728Y-4.3416
X4.6728Y-4.3632
X4.6728Y-4.4496
X4.68Y-4.2552
X4.68Y-4.3416
X4.68Y-4.3632
X4.68Y-4.4496
X4.6872Y-4.2552
X4.6872Y-4.3416
X4.6872Y-4.3632
X4.6872Y-4.4496
X4.6944Y-4.2552
X4.6944Y-4.3416
X4.6944Y-4.3632
X4.6944Y-4.4496
X4.7016Y-4.2552
X4.7016Y-4.3416
X4.7016Y-4.3632
X4.7016Y-4.4496
X4.7088Y-4.2552
X4.7088Y-4.3416
X4.7088Y-4.3632
X4.7088Y-4.4496
X4.716Y-4.2552
X4.716Y-4.3416
X4.716Y-4.3632
X4.716Y-4.4496
X4.7232Y-4.2552
X4.7232Y-4.3416
X4.7232Y-4.3632
X4.7232Y-4.4496
X4.7304Y-4.2552
X4.7304Y-4.3416
X4.7304Y-4.3632
X4.7304Y-4.4496
X4.7376Y-4.2552
X4.7376Y-4.3416
X4.7376Y-4.3632
X4.7376Y-4.4496
X4.7448Y-4.2552
X4.7448Y-4.3416
X4.7448Y-4.3632
X4.7448Y-4.4496
X4.752Y-4.2552
X4.752Y-4.3416
X4.752Y-4.3632
X4.752Y-4.4496
X4.7592Y-4.2552
X4.7592Y-4.3416
X4.7592Y-4.3632
X4.7592Y-4.4496
X4.7664Y-4.2552
X4.7664Y-4.3416
X4.7664Y-4.3632
X4.7664Y-4.4496
X4.7736Y-4.2552
X4.7736Y-4.3416
X4.7736Y-4.3632
X4.7736Y-4.4496
X4.7808Y-4.2552
X4.7808Y-4.3416
X4.7808Y-4.3632
X4.7808Y-4.4496
X4.788Y-4.2552
X4.788Y-4.3416
X4.788Y-4.3632
X4.788Y-4.4496
X4.7952Y-4.2552
X4.7952Y-4.3416
X4.7952Y-4.3632
X4.7952Y-4.4496
X4.8024Y-4.2552
X4.8024Y-4.3416
X4.8024Y-4.3632
X4.8024Y-4.4496
X4.8096Y-4.2552
X4.8096Y-4.3416
X4.8096Y-4.3632
X4.8096Y-4.4496
X4.8168Y-4.2552
X4.8168Y-4.3416
X4.8168Y-4.3632
X4.8168Y-4.4496
X4.824Y-4.2552
X4.824Y-4.3416
X4.824Y-4.3632
X4.824Y-4.4496
X4.8312Y-4.2552
X4.8312Y-4.3416
X4.8312Y-4.3632
X4.8312Y-4.4496
X4.8384Y-4.2552
X4.8384Y-4.3416
X4.8384Y-4.3632
X4.8384Y-4.4496
X4.8456Y-4.2552
X4.8456Y-4.3416
X4.8456Y-4.3632
X4.8456Y-4.4496
X4.8528Y-4.2552
X4.8528Y-4.3416
X4.8528Y-4.3632
X4.8528Y-4.4496
X4.86Y-4.2552
X4.86Y-4.3416
X4.86Y-4.3632
X4.86Y-4.4496
X4.8672Y-4.2552
X4.8672Y-4.3416
X4.8672Y-4.3632
X4.8672Y-4.4496
X4.8744Y-4.2552
X4.8744Y-4.3416
X4.8744Y-4.3632
X4.8744Y-4.4496
X4.8816Y-4.2552
X4.8816Y-4.3416
X4.8816Y-4.3632
X4.8816Y-4.4496
X4.8888Y-4.2552
X4.8888Y-4.3416
X4.8888Y-4.3632
X4.8888Y-4.4496
X4.896Y-4.2552
X4.896Y-4.3416
X4.896Y-4.3632
X4.896Y-4.4496
X4.9032Y-4.2552
X4.9032Y-4.3416
X4.9032Y-4.3632
X4.9032Y-4.4496
X4.9104Y-4.2552
X4.9104Y-4.3416
X4.9104Y-4.3632
X4.9104Y-4.4496
X4.9176Y-4.2552
X4.9176Y-4.3416
X4.9176Y-4.3632
X4.9176Y-4.4496
X4.9248Y-4.2552
X4.9248Y-4.3416
X4.9248Y-4.3632
X4.9248Y-4.4496
X4.932Y-4.2552
X4.932Y-4.3416
X4.932Y-4.3632
X4.932Y-4.4496
X4.9392Y-4.2552
X4.9392Y-4.3416
X4.9392Y-4.3632
X4.9392Y-4.4496
X4.9464Y-4.2552
X4.9464Y-4.3416
X4.9464Y-4.3632
X4.9464Y-4.4496
X4.9536Y-4.2552
X4.9536Y-4.3416
X4.9536Y-4.3632
X4.9536Y-4.4496
X4.9608Y-4.2552
X4.9608Y-4.3416
X4.9608Y-4.3632
X4.9608Y-4.4496
X4.968Y-4.2552
X4.968Y-4.3416
X4.968Y-4.3632
X4.968Y-4.4496
X4.9752Y-4.2552
X4.9752Y-4.3416
X4.9752Y-4.3632
X4.9752Y-4.4496
X4.9824Y-4.2552
X4.9824Y-4.3416
X4.9824Y-4.3632
X4.9824Y-4.4496
X4.9896Y-4.2552
X4.9896Y-4.3416
X4.9896Y-4.3632
X4.9896Y-4.4496
X4.9968Y-4.2552
X4.9968Y-4.3416
X4.9968Y-4.3632
X4.9968Y-4.4496
X5.004Y-4.2552
X5.004Y-4.3416
X5.004Y-4.3632
X5.004Y-4.4496
X5.0112Y-4.2552
X5.0112Y-4.3416
X5.0112Y-4.3632
X5.0112Y-4.4496
X5.0184Y-4.2552
X5.0184Y-4.3416
X5.0184Y-4.3632
X5.0184Y-4.4496
X5.0256Y-4.2552
X5.0256Y-4.3416
X5.0256Y-4.3632
X5.0256Y-4.4496
X5.0328Y-4.2552
X5.0328Y-4.3416
X5.0328Y-4.3632
X5.0328Y-4.4496
X5.04Y-4.2552
X5.04Y-4.3416
X5.04Y-4.3632
X5.04Y-4.4496
X5.0472Y-4.2552
X5.0472Y-4.3416
X5.0472Y-4.3632
X5.0472Y-4.4496
X5.0544Y-4.2552
X5.0544Y-4.3416
X5.0544Y-4.3632
X5.0544Y-4.4496
X5.0616Y-4.2552
X5.0616Y-4.3416
X5.0616Y-4.3632
X5.0616Y-4.4496
X5.0688Y-4.2552
X5.0688Y-4.3416
X5.0688Y-4.3632
X5.0688Y-4.4496
X5.076Y-4.2552
X5.076Y-4.3416
X5.076Y-4.3632
X5.076Y-4.4496
X5.0832Y-4.2552
X5.0832Y-4.3416
X5.0832Y-4.3632
X5.0832Y-4.4496
X5.0904Y-4.2552
X5.0904Y-4.3416
X5.0904Y-4.3632
X5.0904Y-4.4496
X5.0976Y-4.2552
X5.0976Y-4.3416
X5.0976Y-4.3632
X5.0976Y-4.4496
X5.1048Y-4.2552
X5.1048Y-4.3416
X5.1048Y-4.3632
X5.1048Y-4.4496
X5.112Y-4.2552
X5.112Y-4.3416
X5.112Y-4.3632
X5.112Y-4.4496
X5.1192Y-4.2552
X5.1192Y-4.3416
X5.1192Y-4.3632
X5.1192Y-4.4496
X5.1264Y-4.2552
X5.1264Y-4.3416
X5.1264Y-4.3632
X5.1264Y-4.4496
X5.1336Y-4.2552
X5.1336Y-4.3416
X5.1336Y-4.3632
X5.1336Y-4.4496
X5.1408Y-4.2552
X5.1408Y-4.3416
X5.1408Y-4.3632
X5.1408Y-4.4496
X5.148Y-4.2552
X5.148Y-4.3416
X5.148Y-4.3632
X5.148Y-4.4496
X5.1552Y-4.2552
X5.1552Y-4.3416
X5.1552Y-4.3632
X5.1552Y-4.4496
X5.1624Y-4.2552
X5.1624Y-4.3416
X5.1624Y-4.3632
X5.1624Y-4.4496
X5.1696Y-4.2552
X5.1696Y-4.3416
X5.1696Y-4.3632
X5.1696Y-4.4496
X5.1768Y-4.2552
X5.1768Y-4.3416
X5.1768Y-4.3632
X5.1768Y-4.4496
X5.184Y-4.2552
X5.184Y-4.3416
X5.184Y-4.3632
X5.184Y-4.4496
X5.1912Y-4.2552
X5.1912Y-4.3416
X5.1912Y-4.3632
X5.1912Y-4.4496
X5.1984Y-4.2552
X5.1984Y-4.3416
X5.1984Y-4.3632
X5.1984Y-4.4496
X5.2056Y-4.2552
X5.2056Y-4.3416
X5.2056Y-4.3632
X5.2056Y-4.4496
X5.2128Y-4.2552
X5.2128Y-4.3416
X5.2128Y-4.3632
X5.2128Y-4.4496
X5.22Y-4.2552
X5.22Y-4.3416
X5.22Y-4.3632
X5.22Y-4.4496
X5.2272Y-4.2552
X5.2272Y-4.3416
X5.2272Y-4.3632
X5.2272Y-4.4496
X5.2344Y-4.2552
X5.2344Y-4.3416
X5.2344Y-4.3632
X5.2344Y-4.4496
X5.2416Y-4.2552
X5.2416Y-4.3416
X5.2416Y-4.3632
X5.2416Y-4.4496
X5.2488Y-4.2552
X5.2488Y-4.3416
X5.2488Y-4.3632
X5.2488Y-4.4496
X5.256Y-4.2552
X5.256Y-4.3416
X5.256Y-4.3632
X5.256Y-4.4496
X5.2632Y-4.2552
X5.2632Y-4.3416
X5.2632Y-4.3632
X5.2632Y-4.4496
X5.2704Y-4.2552
X5.2704Y-4.3416
X5.2704Y-4.3632
X5.2704Y-4.4496
X5.2776Y-4.2552
X5.2776Y-4.3416
X5.2776Y-4.3632
X5.2776Y-4.4496
X5.2848Y-4.2552
X5.2848Y-4.3416
X5.2848Y-4.3632
X5.2848Y-4.4496
X5.292Y-4.2552
X5.292Y-4.3416
X5.292Y-4.3632
X5.292Y-4.4496
X5.2992Y-4.2552
X5.2992Y-4.3416
X5.2992Y-4.3632
X5.2992Y-4.4496
X5.3064Y-4.2552
X5.3064Y-4.3416
X5.3064Y-4.3632
X5.3064Y-4.4496
X5.3136Y-4.2552
X5.3136Y-4.3416
X5.3136Y-4.3632
X5.3136Y-4.4496
X5.3208Y-4.2552
X5.3208Y-4.3416
X5.3208Y-4.3632
X5.3208Y-4.4496
X5.328Y-4.2552
X5.328Y-4.3416
X5.328Y-4.3632
X5.328Y-4.4496
X5.3352Y-4.2552
X5.3352Y-4.3416
X5.3352Y-4.3632
X5.3352Y-4.4496
X5.3424Y-4.2552
X5.3424Y-4.3416
X5.3424Y-4.3632
X5.3424Y-4.4496
X5.3496Y-4.2552
X5.3496Y-4.3416
X5.3496Y-4.3632
X5.3496Y-4.4496
X5.3568Y-4.2552
X5.3568Y-4.3416
X5.3568Y-4.3632
X5.3568Y-4.4496
X5.364Y-4.2552
X5.364Y-4.3416
X5.364Y-4.3632
X5.364Y-4.4496
X5.3712Y-4.2552
X5.3712Y-4.3416
X5.3712Y-4.3632
X5.3712Y-4.4496
X5.3784Y-4.2552
X5.3784Y-4.3416
X5.3784Y-4.3632
X5.3784Y-4.4496
X5.3856Y-4.2552
X5.3856Y-4.3416
X5.3856Y-4.3632
X5.3856Y-4.4496
X5.3928Y-4.2552
X5.3928Y-4.3416
X5.3928Y-4.3632
X5.3928Y-4.4496
X5.4Y-4.2552
X5.4Y-4.3416
X5.4Y-4.3632
X5.4Y-4.4496
X5.4072Y-4.2552
X5.4072Y-4.3416
X5.4072Y-4.3632
X5.4072Y-4.4496
X5.4144Y-4.2552
X5.4144Y-4.3416
X5.4144Y-4.3632
X5.4144Y-4.4496
X5.4216Y-4.2552
X5.4216Y-4.3416
X5.4216Y-4.3632
X5.4216Y-4.4496
X5.4288Y-4.2552
X5.4288Y-4.3416
X5.4288Y-4.3632
X5.4288Y-4.4496
X5.436Y-4.2552
X5.436Y-4.3416
X5.436Y-4.3632
X5.436Y-4.4496
X5.4432Y-4.2552
X5.4432Y-4.3416
X5.4432Y-4.3632
X5.4432Y-4.4496
X5.4504Y-4.2552
X5.4504Y-4.3416
X5.4504Y-4.3632
X5.4504Y-4.4496
X5.4576Y-4.2552
X5.4576Y-4.3416
X5.4576Y-4.3632
X5.4576Y-4.4496
X5.4648Y-4.2552
X5.4648Y-4.3416
X5.4648Y-4.3632
X5.4648Y-4.4496
X5.472Y-4.2552
X5.472Y-4.3416
X5.472Y-4.3632
X5.472Y-4.4496
X5.4792Y-4.2552
X5.4792Y-4.3416
X5.4792Y-4.3632
X5.4792Y-4.4496
X5.4864Y-4.2552
X5.4864Y-4.3416
X5.4864Y-4.3632
X5.4864Y-4.4496
X5.4936Y-4.2552
X5.4936Y-4.3416
X5.4936Y-4.3632
X5.4936Y-4.4496
X5.5008Y-4.2552
X5.5008Y-4.3416
X5.5008Y-4.3632
X5.5008Y-4.4496
X5.508Y-4.2552
X5.508Y-4.3416
X5.508Y-4.3632
X5.508Y-4.4496
X5.5152Y-4.2552
X5.5152Y-4.3416
X5.5152Y-4.3632
X5.5152Y-4.4496
X5.5224Y-4.2552
X5.5224Y-4.3416
X5.5224Y-4.3632
X5.5224Y-4.4496
X5.5296Y-4.2552
X5.5296Y-4.3416
X5.5296Y-4.3632
X5.5296Y-4.4496
X5.5368Y-4.2552
X5.5368Y-4.3416
X5.5368Y-4.3632
X5.5368Y-4.4496
X5.544Y-4.2552
X5.544Y-4.3416
X5.544Y-4.3632
X5.544Y-4.4496
X5.5512Y-4.2552
X5.5512Y-4.3416
X5.5512Y-4.3632
X5.5512Y-4.4496
X5.5584Y-4.2552
X5.5584Y-4.3416
X5.5584Y-4.3632
X5.5584Y-4.4496
X5.5656Y-4.2552
X5.5656Y-4.3416
X5.5656Y-4.3632
X5.5656Y-4.4496
X5.5728Y-4.2552
X5.5728Y-4.3416
X5.5728Y-4.3632
X5.5728Y-4.4496
X5.58Y-4.2552
X5.58Y-4.3416
X5.58Y-4.3632
X5.58Y-4.4496
X5.5872Y-4.2552
X5.5872Y-4.3416
X5.5872Y-4.3632
X5.5872Y-4.4496
X5.5944Y-4.2552
X5.5944Y-4.3416
X5.5944Y-4.3632
X5.5944Y-4.4496
X5.6016Y-4.2552
X5.6016Y-4.3416
X5.6016Y-4.3632
X5.6016Y-4.4496
X5.6088Y-4.2552
X5.6088Y-4.3416
X5.6088Y-4.3632
X5.6088Y-4.4496
X5.616Y-4.2552
X5.616Y-4.3416
X5.616Y-4.3632
X5.616Y-4.4496
X5.6232Y-4.2552
X5.6232Y-4.3416
X5.6232Y-4.3632
X5.6232Y-4.4496
X5.6304Y-4.2552
X5.6304Y-4.3416
X5.6304Y-4.3632
X5.6304Y-4.4496
X5.6376Y-4.2552
X5.6376Y-4.3416
X5.6376Y-4.3632
X5.6376Y-4.4496
X5.6448Y-4.2552
X5.6448Y-4.3416
X5.6448Y-4.3632
X5.6448Y-4.4496
X5.652Y-4.2552
X5.652Y-4.3416
X5.652Y-4.3632
X5.652Y-4.4496
X5.6592Y-4.2552
X5.6592Y-4.3416
X5.6592Y-4.3632
X5.6592Y-4.4496
X5.6664Y-4.2552
X5.6664Y-4.3416
X5.6664Y-4.3632
X5.6664Y-4.4496
X5.6736Y-4.2552
X5.6736Y-4.3416
X5.6736Y-4.3632
X5.6736Y-4.4496
X5.6808Y-4.2552
X5.6808Y-4.3416
X5.6808Y-4.3632
X5.6808Y-4.4496
X5.688Y-4.2552
X5.688Y-4.3416
X5.688Y-4.3632
X5.688Y-4.4496
X5.6952Y-4.2552
X5.6952Y-4.3416
X5.6952Y-4.3632
X5.6952Y-4.4496
X5.7024Y-4.2552
X5.7024Y-4.3416
X5.7024Y-4.3632
X5.7024Y-4.4496
X5.7096Y-4.2552
X5.7096Y-4.3416
X5.7096Y-4.3632
X5.7096Y-4.4496
X5.7168Y-4.2552
X5.7168Y-4.3416
X5.7168Y-4.3632
X5.7168Y-4.4496
X5.724Y-4.2552
X5.724Y-4.3416
X5.724Y-4.3632
X5.724Y-4.4496
X5.7312Y-4.2552
X5.7312Y-4.3416
X5.7312Y-4.3632
X5.7312Y-4.4496
X5.7384Y-4.2552
X5.7384Y-4.3416
X5.7384Y-4.3632
X5.7384Y-4.4496
X5.7456Y-4.2552
X5.7456Y-4.3416
X5.7456Y-4.3632
X5.7456Y-4.4496
X5.7528Y-4.2552
X5.7528Y-4.3416
X5.7528Y-4.3632
X5.7528Y-4.4496
X5.76Y-4.2552
X5.76Y-4.3416
X5.76Y-4.3632
X5.76Y-4.4496
X5.7672Y-4.2552
X5.7672Y-4.3416
X5.7672Y-4.3632
X5.7672Y-4.4496
X5.7744Y-4.2552
X5.7744Y-4.3416
X5.7744Y-4.3632
X5.7744Y-4.4496
X5.7816Y-4.2552
X5.7816Y-4.3416
X5.7816Y-4.3632
X5.7816Y-4.4496
X5.7888Y-4.2552
X5.7888Y-4.3416
X5.7888Y-4.3632
X5.7888Y-4.4496
X5.796Y-4.2552
X5.796Y-4.3416
X5.796Y-4.3632
X5.796Y-4.4496
X5.8032Y-4.2552
X5.8032Y-4.3416
X5.8032Y-4.3632
X5.8032Y-4.4496
X5.8104Y-4.2552
X5.8104Y-4.3416
X5.8104Y-4.3632
X5.8104Y-4.4496
X5.8176Y-4.2552
X5.8176Y-4.3416
X5.8176Y-4.3632
X5.8176Y-4.4496
X5.8248Y-4.2552
X5.8248Y-4.3416
X5.8248Y-4.3632
X5.8248Y-4.4496
X5.832Y-4.2552
X5.832Y-4.3416
X5.832Y-4.3632
X5.832Y-4.4496
X5.8392Y-4.2552
X5.8392Y-4.3416
X5.8392Y-4.3632
X5.8392Y-4.4496
X5.8464Y-4.2552
X5.8464Y-4.3416
X5.8464Y-4.3632
X5.8464Y-4.4496
X5.8536Y-4.2552
X5.8536Y-4.3416
X5.8536Y-4.3632
X5.8536Y-4.4496
X5.8608Y-4.2552
X5.8608Y-4.3416
X5.8608Y-4.3632
X5.8608Y-4.4496
X5.868Y-4.2552
X5.868Y-4.3416
X5.868Y-4.3632
X5.868Y-4.4496
X5.8752Y-4.2552
X5.8752Y-4.3416
X5.8752Y-4.3632
X5.8752Y-4.4496
X5.8824Y-4.2552
X5.8824Y-4.3416
X5.8824Y-4.3632
X5.8824Y-4.4496
X5.8896Y-4.2552
X5.8896Y-4.3416
X5.8896Y-4.3632
X5.8896Y-4.4496
X5.8968Y-4.2552
X5.8968Y-4.3416
X5.8968Y-4.3632
X5.8968Y-4.4496
X5.904Y-4.2552
X5.904Y-4.3416
X5.904Y-4.3632
X5.904Y-4.4496
X5.9112Y-4.2552
X5.9112Y-4.3416
X5.9112Y-4.3632
X5.9112Y-4.4496
X5.9184Y-4.2552
X5.9184Y-4.3416
X5.9184Y-4.3632
X5.9184Y-4.4496
X5.9256Y-4.2552
X5.9256Y-4.3416
X5.9256Y-4.3632
X5.9256Y-4.4496
X5.9328Y-4.2552
X5.9328Y-4.3416
X5.9328Y-4.3632
X5.9328Y-4.4496
X5.94Y-4.2552
X5.94Y-4.3416
X5.94Y-4.3632
X5.94Y-4.4496
X5.9472Y-4.2552
X5.9472Y-4.3416
X5.9472Y-4.3632
X5.9472Y-4.4496
X5.9544Y-4.2552
X5.9544Y-4.3416
X5.9544Y-4.3632
X5.9544Y-4.4496
X5.9616Y-4.2552
X5.9616Y-4.3416
X5.9616Y-4.3632
X5.9616Y-4.4496
X5.9688Y-4.2552
X5.9688Y-4.3416
X5.9688Y-4.3632
X5.9688Y-4.4496
X5.976Y-4.2552
X5.976Y-4.3416
X5.976Y-4.3632
X5.976Y-4.4496
X5.9832Y-4.2552
X5.9832Y-4.3416
X5.9832Y-4.3632
X5.9832Y-4.4496
X5.9904Y-4.2552
X5.9904Y-4.3416
X5.9904Y-4.3632
X5.9904Y-4.4496
X5.9976Y-4.2552
X5.9976Y-4.3416
X5.9976Y-4.3632
X5.9976Y-4.4496
X6.0048Y-4.2552
X6.0048Y-4.3416
X6.0048Y-4.3632
X6.0048Y-4.4496
X6.012Y-4.2552
X6.012Y-4.3416
X6.012Y-4.3632
X6.012Y-4.4496
X6.0192Y-4.2552
X6.0192Y-4.3416
X6.0192Y-4.3632
X6.0192Y-4.4496
X6.0264Y-4.2552
X6.0264Y-4.3416
X6.0264Y-4.3632
X6.0264Y-4.4496
X6.0336Y-4.2552
X6.0336Y-4.3416
X6.0336Y-4.3632
X6.0336Y-4.4496
X6.0408Y-4.2552
X6.0408Y-4.3416
X6.0408Y-4.3632
X6.0408Y-4.4496
X6.048Y-4.2552
X6.048Y-4.3416
X6.048Y-4.3632
X6.048Y-4.4496
X6.0552Y-4.2552
X6.0552Y-4.3416
X6.0552Y-4.3632
X6.0552Y-4.4496
X6.0624Y-4.2552
X6.0624Y-4.3416
X6.0624Y-4.3632
X6.0624Y-4.4496
X6.0696Y-4.2552
X6.0696Y-4.3416
X6.0696Y-4.3632
X6.0696Y-4.4496
X6.0768Y-4.2552
X6.0768Y-4.3416
X6.0768Y-4.3632
X6.0768Y-4.4496
X6.084Y-4.2552
X6.084Y-4.3416
X6.084Y-4.3632
X6.084Y-4.4496
X6.0912Y-4.2552
X6.0912Y-4.3416
X6.0912Y-4.3632
X6.0912Y-4.4496
X6.0984Y-4.2552
X6.0984Y-4.3416
X6.0984Y-4.3632
X6.0984Y-4.4496
X6.1056Y-4.2552
X6.1056Y-4.3416
X6.1056Y-4.3632
X6.1056Y-4.4496
X6.1128Y-4.2552
X6.1128Y-4.3416
X6.1128Y-4.3632
X6.1128Y-4.4496
X6.12Y-4.2552
X6.12Y-4.3416
X6.12Y-4.3632
X6.12Y-4.4496
X6.1272Y-4.2552
X6.1272Y-4.3416
X6.1272Y-4.3632
X6.1272Y-4.4496
X6.1344Y-4.2552
X6.1344Y-4.3416
X6.1344Y-4.3632
X6.1344Y-4.4496
X6.1416Y-4.2552
X6.1416Y-4.3416
X6.1416Y-4.3632
X6.1416Y-4.4496
X6.1488Y-4.2552
X6.1488Y-4.3416
X6.1488Y-4.3632
X6.1488Y-4.4496
X6.156Y-4.2552
X6.156Y-4.3416
X6.156Y-4.3632
X6.156Y-4.4496
X6.1632Y-4.2552
X6.1632Y-4.3416
X6.1632Y-4.3632
X6.1632Y-4.4496
X6.1704Y-4.2552
X6.1704Y-4.3416
X6.1704Y-4.3632
X6.1704Y-4.4496
X6.1776Y-4.2552
X6.1776Y-4.3416
X6.1776Y-4.3632
X6.1776Y-4.4496
X6.1848Y-4.2552
X6.1848Y-4.3416
X6.1848Y-4.3632
X6.1848Y-4.4496
X6.192Y-4.2552
X6.192Y-4.3416
X6.192Y-4.3632
X6.192Y-4.4496
X6.1992Y-4.2552
X6.1992Y-4.3416
X6.1992Y-4.3632
X6.1992Y-4.4496
X6.2064Y-4.2552
X6.2064Y-4.3416
X6.2064Y-4.3632
X6.2064Y-4.4496
X6.2136Y-4.2552
X6.2136Y-4.3416
X6.2136Y-4.3632
X6.2136Y-4.4496
X6.2208Y-4.2552
X6.2208Y-4.3416
X6.2208Y-4.3632
X6.2208Y-4.4496
X6.228Y-4.2552
X6.228Y-4.3416
X6.228Y-4.3632
X6.228Y-4.4496
X6.2352Y-4.2552
X6.2352Y-4.3416
X6.2352Y-4.3632
X6.2352Y-4.4496
X6.2424Y-4.2552
X6.2424Y-4.3416
X6.2424Y-4.3632
X6.2424Y-4.4496
X6.2496Y-4.2552
X6.2496Y-4.3416
X6.2496Y-4.3632
X6.2496Y-4.4496
X6.2568Y-4.2552
X6.2568Y-4.3416
X6.2568Y-4.3632
X6.2568Y-4.4496
X6.264Y-4.2552
X6.264Y-4.3416
X6.264Y-4.3632
X6.264Y-4.4496
X6.2712Y-4.2552
X6.2712Y-4.3416
X6.2712Y-4.3632
X6.2712Y-4.4496
X6.2784Y-4.2552
X6.2784Y-4.3416
X6.2784Y-4.3632
X6.2784Y-4.4496
X6.2856Y-4.2552
X6.2856Y-4.3416
X6.2856Y-4.3632
X6.2856Y-4.4496
X6.2882Y-3.5866
X6.2928Y-4.2552
X6.2928Y-4.3416
X6.2928Y-4.3632
X6.2928Y-4.4496
X6.3Y-4.2552
X6.3Y-4.3416
X6.3Y-4.3632
X6.3Y-4.4496
X6.3072Y-4.2552
X6.3072Y-4.3416
X6.3072Y-4.3632
X6.3072Y-4.4496
X6.3144Y-4.2552
X6.3144Y-4.3416
X6.3144Y-4.3632
X6.3144Y-4.4496
X6.3216Y-4.2552
X6.3216Y-4.3416
X6.3216Y-4.3632
X6.3216Y-4.4496
X6.3288Y-4.2552
X6.3288Y-4.3416
X6.3288Y-4.3632
X6.3288Y-4.4496
X6.336Y-4.2552
X6.336Y-4.3416
X6.336Y-4.3632
X6.336Y-4.4496
X6.3432Y-4.2552
X6.3432Y-4.3416
X6.3432Y-4.3632
X6.3432Y-4.4496
X6.3504Y-4.2552
X6.3504Y-4.3416
X6.3504Y-4.3632
X6.3504Y-4.4496
X6.3576Y-4.2552
X6.3576Y-4.3416
X6.3576Y-4.3632
X6.3576Y-4.4496
X6.3648Y-4.2552
X6.3648Y-4.3416
X6.3648Y-4.3632
X6.3648Y-4.4496
X6.372Y-4.2552
X6.372Y-4.3416
X6.372Y-4.3632
X6.372Y-4.4496
X6.3792Y-4.2552
X6.3792Y-4.3416
X6.3792Y-4.3632
X6.3792Y-4.4496
X6.3864Y-4.2552
X6.3864Y-4.3416
X6.3864Y-4.3632
X6.3864Y-4.4496
X6.3936Y-4.2552
X6.3936Y-4.3416
X6.3936Y-4.3632
X6.3936Y-4.4496
X6.4008Y-4.2552
X6.4008Y-4.3416
X6.4008Y-4.3632
X6.4008Y-4.4496
X6.408Y-4.2552
X6.408Y-4.3416
X6.408Y-4.3632
X6.408Y-4.4496
X6.4152Y-4.2552
X6.4152Y-4.3416
X6.4152Y-4.3632
X6.4152Y-4.4496
X6.4224Y-4.2552
X6.4224Y-4.3416
X6.4224Y-4.3632
X6.4224Y-4.4496
X6.4296Y-4.2552
X6.4296Y-4.3416
X6.4296Y-4.3632
X6.4296Y-4.4496
X6.4368Y-4.2552
X6.4368Y-4.3416
X6.4368Y-4.3632
X6.4368Y-4.4496
X6.444Y-4.2552
X6.444Y-4.3416
X6.444Y-4.3632
X6.444Y-4.4496
X6.4512Y-4.2552
X6.4512Y-4.3416
X6.4512Y-4.3632
X6.4512Y-4.4496
X6.4584Y-4.2552
X6.4584Y-4.3416
X6.4584Y-4.3632
X6.4584Y-4.4496
T2
X3.4205Y-3.5157
X3.4205Y-3.6157
X6.2882Y-3.4866
X6.2882Y-3.5866
T0
M30
